<?xml version="1.0" encoding="UTF-8" standalone="no"?>
<!DOCTYPE svg PUBLIC "-//W3C//DTD SVG 1.1//EN"
 "http://www.w3.org/Graphics/SVG/1.1/DTD/svg11.dtd">
<!-- Generated by graphviz version 2.47.3 (20210619.1520)
 -->
<!-- Title: dependencies Pages: 1 -->
<svg width="424pt" height="247pt"
 viewBox="0.00 0.00 424.00 246.80" xmlns="http://www.w3.org/2000/svg" xmlns:xlink="http://www.w3.org/1999/xlink">
<g id="graph0" class="graph" transform="scale(1 1) rotate(0) translate(4 242.8)">
<title>dependencies</title>
<polygon fill="white" stroke="transparent" points="-4,4 -4,-242.8 420,-242.8 420,4 -4,4"/>
<text text-anchor="middle" x="208" y="-8.2" font-family="sans-serif" font-size="14.00">dependencies</text>
<g id="clust1" class="cluster">
<title>cluster_SharedModule</title>
<polygon fill="none" stroke="black" stroke-dasharray="1,5" points="8,-32.8 8,-230.8 408,-230.8 408,-32.8 8,-32.8"/>
</g>
<g id="clust2" class="cluster">
<title>cluster_SharedModule_declarations</title>
<polygon fill="none" stroke="black" points="20,-40.8 20,-92.8 396,-92.8 396,-40.8 20,-40.8"/>
</g>
<g id="clust7" class="cluster">
<title>cluster_SharedModule_exports</title>
<polygon fill="none" stroke="black" points="16,-170.8 16,-222.8 400,-222.8 400,-170.8 16,-170.8"/>
</g>
<!-- PageNotFoundComponent -->
<g id="node1" class="node">
<title>PageNotFoundComponent</title>
<polygon fill="#ffffb3" stroke="black" points="387.82,-84.8 222.18,-84.8 222.18,-48.8 387.82,-48.8 387.82,-84.8"/>
<text text-anchor="middle" x="305" y="-62.6" font-family="Times,serif" font-size="14.00">PageNotFoundComponent</text>
</g>
<!-- SharedModule -->
<g id="node4" class="node">
<title>SharedModule</title>
<polygon fill="#8dd3c7" stroke="black" points="215.42,-149.8 212.42,-153.8 191.42,-153.8 188.42,-149.8 116.58,-149.8 116.58,-113.8 215.42,-113.8 215.42,-149.8"/>
<text text-anchor="middle" x="166" y="-127.6" font-family="Times,serif" font-size="14.00">SharedModule</text>
</g>
<!-- PageNotFoundComponent&#45;&gt;SharedModule -->
<g id="edge1" class="edge">
<title>PageNotFoundComponent&#45;&gt;SharedModule</title>
<path fill="none" stroke="black" d="M222.05,-66.8C214.47,-66.8 209.57,-66.8 209.57,-66.8 209.57,-66.8 209.57,-103.69 209.57,-103.69"/>
<polygon fill="black" stroke="black" points="206.07,-103.69 209.57,-113.69 213.07,-103.69 206.07,-103.69"/>
</g>
<!-- RouterTab -->
<g id="node2" class="node">
<title>RouterTab</title>
<polygon fill="#ffffb3" stroke="black" points="203.87,-84.8 128.13,-84.8 128.13,-48.8 203.87,-48.8 203.87,-84.8"/>
<text text-anchor="middle" x="166" y="-62.6" font-family="Times,serif" font-size="14.00">RouterTab</text>
</g>
<!-- RouterTab&#45;&gt;SharedModule -->
<g id="edge2" class="edge">
<title>RouterTab&#45;&gt;SharedModule</title>
<path fill="none" stroke="black" d="M166,-84.91C166,-84.91 166,-103.79 166,-103.79"/>
<polygon fill="black" stroke="black" points="162.5,-103.79 166,-113.79 169.5,-103.79 162.5,-103.79"/>
</g>
<!-- RouterTabs -->
<g id="node3" class="node">
<title>RouterTabs</title>
<polygon fill="#ffffb3" stroke="black" points="109.81,-84.8 28.19,-84.8 28.19,-48.8 109.81,-48.8 109.81,-84.8"/>
<text text-anchor="middle" x="69" y="-62.6" font-family="Times,serif" font-size="14.00">RouterTabs</text>
</g>
<!-- RouterTabs&#45;&gt;SharedModule -->
<g id="edge3" class="edge">
<title>RouterTabs&#45;&gt;SharedModule</title>
<path fill="none" stroke="black" d="M109.77,-66.8C117.08,-66.8 122.43,-66.8 122.43,-66.8 122.43,-66.8 122.43,-103.69 122.43,-103.69"/>
<polygon fill="black" stroke="black" points="118.93,-103.69 122.43,-113.69 125.93,-103.69 118.93,-103.69"/>
</g>
<!-- PageNotFoundComponent  -->
<g id="node5" class="node">
<title>PageNotFoundComponent </title>
<polygon fill="#fb8072" stroke="black" points="392.32,-214.8 223.68,-214.8 223.68,-178.8 392.32,-178.8 392.32,-214.8"/>
<text text-anchor="middle" x="308" y="-192.6" font-family="Times,serif" font-size="14.00">PageNotFoundComponent </text>
</g>
<!-- SharedModule&#45;&gt;PageNotFoundComponent  -->
<g id="edge4" class="edge">
<title>SharedModule&#45;&gt;PageNotFoundComponent </title>
<path fill="none" stroke="black" stroke-dasharray="5,2" d="M210.45,-149.91C210.45,-169.14 210.45,-196.8 210.45,-196.8 210.45,-196.8 213.6,-196.8 213.6,-196.8"/>
<polygon fill="black" stroke="black" points="213.6,-200.3 223.6,-196.8 213.6,-193.3 213.6,-200.3"/>
</g>
<!-- RouterTab  -->
<g id="node6" class="node">
<title>RouterTab </title>
<polygon fill="#fb8072" stroke="black" points="205.87,-214.8 126.13,-214.8 126.13,-178.8 205.87,-178.8 205.87,-214.8"/>
<text text-anchor="middle" x="166" y="-192.6" font-family="Times,serif" font-size="14.00">RouterTab </text>
</g>
<!-- SharedModule&#45;&gt;RouterTab  -->
<g id="edge5" class="edge">
<title>SharedModule&#45;&gt;RouterTab </title>
<path fill="none" stroke="black" stroke-dasharray="5,2" d="M166,-149.91C166,-149.91 166,-168.79 166,-168.79"/>
<polygon fill="black" stroke="black" points="162.5,-168.79 166,-178.79 169.5,-168.79 162.5,-168.79"/>
</g>
<!-- RouterTabs  -->
<g id="node7" class="node">
<title>RouterTabs </title>
<polygon fill="#fb8072" stroke="black" points="108.31,-214.8 23.69,-214.8 23.69,-178.8 108.31,-178.8 108.31,-214.8"/>
<text text-anchor="middle" x="66" y="-192.6" font-family="Times,serif" font-size="14.00">RouterTabs </text>
</g>
<!-- SharedModule&#45;&gt;RouterTabs  -->
<g id="edge6" class="edge">
<title>SharedModule&#45;&gt;RouterTabs </title>
<path fill="none" stroke="black" stroke-dasharray="5,2" d="M121.55,-149.91C121.55,-169.14 121.55,-196.8 121.55,-196.8 121.55,-196.8 118.39,-196.8 118.39,-196.8"/>
<polygon fill="black" stroke="black" points="118.39,-193.3 108.39,-196.8 118.39,-200.3 118.39,-193.3"/>
</g>
</g>
</svg>
