<?xml version="1.0" encoding="UTF-8" standalone="no"?>
<!DOCTYPE svg PUBLIC "-//W3C//DTD SVG 1.1//EN"
 "http://www.w3.org/Graphics/SVG/1.1/DTD/svg11.dtd">
<!-- Generated by graphviz version 2.47.3 (20210619.1520)
 -->
<!-- Title: dependencies Pages: 1 -->
<svg width="350pt" height="174pt"
 viewBox="0.00 0.00 350.00 173.80" xmlns="http://www.w3.org/2000/svg" xmlns:xlink="http://www.w3.org/1999/xlink">
<g id="graph0" class="graph" transform="scale(1 1) rotate(0) translate(4 169.8)">
<title>dependencies</title>
<polygon fill="white" stroke="transparent" points="-4,4 -4,-169.8 346,-169.8 346,4 -4,4"/>
<text text-anchor="middle" x="171" y="-8.2" font-family="sans-serif" font-size="14.00">dependencies</text>
<g id="clust1" class="cluster">
<title>cluster_DashboardModule</title>
<polygon fill="none" stroke="black" stroke-dasharray="1,5" points="8,-32.8 8,-157.8 334,-157.8 334,-32.8 8,-32.8"/>
</g>
<g id="clust2" class="cluster">
<title>cluster_DashboardModule_declarations</title>
<polygon fill="none" stroke="black" points="206,-40.8 206,-92.8 326,-92.8 326,-40.8 206,-40.8"/>
</g>
<g id="clust4" class="cluster">
<title>cluster_DashboardModule_imports</title>
<polygon fill="none" stroke="black" points="16,-40.8 16,-92.8 198,-92.8 198,-40.8 16,-40.8"/>
</g>
<!-- StatComponent -->
<g id="node1" class="node">
<title>StatComponent</title>
<polygon fill="#ffffb3" stroke="black" points="317.61,-84.8 214.39,-84.8 214.39,-48.8 317.61,-48.8 317.61,-84.8"/>
<text text-anchor="middle" x="266" y="-62.6" font-family="Times,serif" font-size="14.00">StatComponent</text>
</g>
<!-- DashboardModule -->
<g id="node2" class="node">
<title>DashboardModule</title>
<polygon fill="#8dd3c7" stroke="black" points="246.19,-149.8 243.19,-153.8 222.19,-153.8 219.19,-149.8 125.81,-149.8 125.81,-113.8 246.19,-113.8 246.19,-149.8"/>
<text text-anchor="middle" x="186" y="-127.6" font-family="Times,serif" font-size="14.00">DashboardModule</text>
</g>
<!-- StatComponent&#45;&gt;DashboardModule -->
<g id="edge1" class="edge">
<title>StatComponent&#45;&gt;DashboardModule</title>
<path fill="none" stroke="black" d="M230.27,-84.91C230.27,-84.91 230.27,-103.79 230.27,-103.79"/>
<polygon fill="black" stroke="black" points="226.77,-103.79 230.27,-113.79 233.77,-103.79 226.77,-103.79"/>
</g>
<!-- DashboardRoutingModule -->
<g id="node3" class="node">
<title>DashboardRoutingModule</title>
<polygon fill="#8dd3c7" stroke="black" points="189.81,-84.8 186.81,-88.8 165.81,-88.8 162.81,-84.8 24.19,-84.8 24.19,-48.8 189.81,-48.8 189.81,-84.8"/>
<text text-anchor="middle" x="107" y="-62.6" font-family="Times,serif" font-size="14.00">DashboardRoutingModule</text>
</g>
<!-- DashboardRoutingModule&#45;&gt;DashboardModule -->
<g id="edge2" class="edge">
<title>DashboardRoutingModule&#45;&gt;DashboardModule</title>
<path fill="none" stroke="black" d="M157.78,-84.91C157.78,-84.91 157.78,-103.79 157.78,-103.79"/>
<polygon fill="black" stroke="black" points="154.28,-103.79 157.78,-113.79 161.28,-103.79 154.28,-103.79"/>
</g>
</g>
</svg>
