<?xml version="1.0" encoding="UTF-8" standalone="no"?>
<!DOCTYPE svg PUBLIC "-//W3C//DTD SVG 1.1//EN"
 "http://www.w3.org/Graphics/SVG/1.1/DTD/svg11.dtd">
<!-- Generated by graphviz version 2.47.3 (20210619.1520)
 -->
<!-- Title: dependencies Pages: 1 -->
<svg width="350pt" height="174pt"
 viewBox="0.00 0.00 350.00 173.80" xmlns="http://www.w3.org/2000/svg" xmlns:xlink="http://www.w3.org/1999/xlink">
<g id="graph0" class="graph" transform="scale(1 1) rotate(0) translate(4 169.8)">
<title>dependencies</title>
<polygon fill="white" stroke="transparent" points="-4,4 -4,-169.8 346,-169.8 346,4 -4,4"/>
<text text-anchor="middle" x="171" y="-8.2" font-family="sans-serif" font-size="14.00">dependencies</text>
<g id="clust1" class="cluster">
<title>cluster_DashboardModule</title>
<polygon fill="none" stroke="black" stroke-dasharray="1,5" points="8,-32.8 8,-157.8 334,-157.8 334,-32.8 8,-32.8"/>
</g>
<g id="clust4" class="cluster">
<title>cluster_DashboardModule_imports</title>
<polygon fill="none" stroke="black" points="144,-40.8 144,-92.8 326,-92.8 326,-40.8 144,-40.8"/>
</g>
<g id="clust2" class="cluster">
<title>cluster_DashboardModule_declarations</title>
<polygon fill="none" stroke="black" points="16,-40.8 16,-92.8 136,-92.8 136,-40.8 16,-40.8"/>
</g>
<!-- StatComponent -->
<g id="node1" class="node">
<title>StatComponent</title>
<polygon fill="#ffffb3" stroke="black" points="127.61,-84.8 24.39,-84.8 24.39,-48.8 127.61,-48.8 127.61,-84.8"/>
<text text-anchor="middle" x="76" y="-62.6" font-family="Times,serif" font-size="14.00">StatComponent</text>
</g>
<!-- DashboardModule -->
<g id="node2" class="node">
<title>DashboardModule</title>
<polygon fill="#8dd3c7" stroke="black" points="215.19,-149.8 212.19,-153.8 191.19,-153.8 188.19,-149.8 94.81,-149.8 94.81,-113.8 215.19,-113.8 215.19,-149.8"/>
<text text-anchor="middle" x="155" y="-127.6" font-family="Times,serif" font-size="14.00">DashboardModule</text>
</g>
<!-- StatComponent&#45;&gt;DashboardModule -->
<g id="edge1" class="edge">
<title>StatComponent&#45;&gt;DashboardModule</title>
<path fill="none" stroke="black" d="M111.23,-84.91C111.23,-84.91 111.23,-103.79 111.23,-103.79"/>
<polygon fill="black" stroke="black" points="107.73,-103.79 111.23,-113.79 114.73,-103.79 107.73,-103.79"/>
</g>
<!-- DashboardRoutingModule -->
<g id="node3" class="node">
<title>DashboardRoutingModule</title>
<polygon fill="#8dd3c7" stroke="black" points="317.81,-84.8 314.81,-88.8 293.81,-88.8 290.81,-84.8 152.19,-84.8 152.19,-48.8 317.81,-48.8 317.81,-84.8"/>
<text text-anchor="middle" x="235" y="-62.6" font-family="Times,serif" font-size="14.00">DashboardRoutingModule</text>
</g>
<!-- DashboardRoutingModule&#45;&gt;DashboardModule -->
<g id="edge2" class="edge">
<title>DashboardRoutingModule&#45;&gt;DashboardModule</title>
<path fill="none" stroke="black" d="M183.72,-84.91C183.72,-84.91 183.72,-103.79 183.72,-103.79"/>
<polygon fill="black" stroke="black" points="180.22,-103.79 183.72,-113.79 187.22,-103.79 180.22,-103.79"/>
</g>
</g>
</svg>
