<?xml version="1.0" encoding="UTF-8" standalone="no"?>
<!DOCTYPE svg PUBLIC "-//W3C//DTD SVG 1.1//EN"
 "http://www.w3.org/Graphics/SVG/1.1/DTD/svg11.dtd">
<!-- Generated by graphviz version 2.47.3 (20210619.1520)
 -->
<!-- Title: dependencies Pages: 1 -->
<svg width="618pt" height="174pt"
 viewBox="0.00 0.00 618.00 173.80" xmlns="http://www.w3.org/2000/svg" xmlns:xlink="http://www.w3.org/1999/xlink">
<g id="graph0" class="graph" transform="scale(1 1) rotate(0) translate(4 169.8)">
<title>dependencies</title>
<polygon fill="white" stroke="transparent" points="-4,4 -4,-169.8 614,-169.8 614,4 -4,4"/>
<text text-anchor="middle" x="305" y="-8.2" font-family="sans-serif" font-size="14.00">dependencies</text>
<g id="clust1" class="cluster">
<title>cluster_TablesModule</title>
<polygon fill="none" stroke="black" stroke-dasharray="1,5" points="8,-32.8 8,-157.8 602,-157.8 602,-32.8 8,-32.8"/>
</g>
<g id="clust8" class="cluster">
<title>cluster_TablesModule_providers</title>
<polygon fill="none" stroke="black" points="462,-40.8 462,-92.8 594,-92.8 594,-40.8 462,-40.8"/>
</g>
<g id="clust2" class="cluster">
<title>cluster_TablesModule_declarations</title>
<polygon fill="none" stroke="black" points="182,-40.8 182,-92.8 454,-92.8 454,-40.8 182,-40.8"/>
</g>
<g id="clust5" class="cluster">
<title>cluster_TablesModule_imports</title>
<polygon fill="none" stroke="black" points="16,-40.8 16,-92.8 174,-92.8 174,-40.8 16,-40.8"/>
</g>
<!-- SearchComponent -->
<g id="node1" class="node">
<title>SearchComponent</title>
<polygon fill="#ffffb3" stroke="black" points="445.92,-84.8 326.08,-84.8 326.08,-48.8 445.92,-48.8 445.92,-84.8"/>
<text text-anchor="middle" x="386" y="-62.6" font-family="Times,serif" font-size="14.00">SearchComponent</text>
</g>
<!-- TablesModule -->
<g id="node3" class="node">
<title>TablesModule</title>
<polygon fill="#8dd3c7" stroke="black" points="365.37,-149.8 362.37,-153.8 341.37,-153.8 338.37,-149.8 268.63,-149.8 268.63,-113.8 365.37,-113.8 365.37,-149.8"/>
<text text-anchor="middle" x="317" y="-127.6" font-family="Times,serif" font-size="14.00">TablesModule</text>
</g>
<!-- SearchComponent&#45;&gt;TablesModule -->
<g id="edge1" class="edge">
<title>SearchComponent&#45;&gt;TablesModule</title>
<path fill="none" stroke="black" d="M345.86,-84.91C345.86,-84.91 345.86,-103.79 345.86,-103.79"/>
<polygon fill="black" stroke="black" points="342.36,-103.79 345.86,-113.79 349.36,-103.79 342.36,-103.79"/>
</g>
<!-- TablesComponent -->
<g id="node2" class="node">
<title>TablesComponent</title>
<polygon fill="#ffffb3" stroke="black" points="308.15,-84.8 189.85,-84.8 189.85,-48.8 308.15,-48.8 308.15,-84.8"/>
<text text-anchor="middle" x="249" y="-62.6" font-family="Times,serif" font-size="14.00">TablesComponent</text>
</g>
<!-- TablesComponent&#45;&gt;TablesModule -->
<g id="edge2" class="edge">
<title>TablesComponent&#45;&gt;TablesModule</title>
<path fill="none" stroke="black" d="M288.45,-84.91C288.45,-84.91 288.45,-103.79 288.45,-103.79"/>
<polygon fill="black" stroke="black" points="284.95,-103.79 288.45,-113.79 291.95,-103.79 284.95,-103.79"/>
</g>
<!-- TablesRoutingModule -->
<g id="node4" class="node">
<title>TablesRoutingModule</title>
<polygon fill="#8dd3c7" stroke="black" points="165.98,-84.8 162.98,-88.8 141.98,-88.8 138.98,-84.8 24.02,-84.8 24.02,-48.8 165.98,-48.8 165.98,-84.8"/>
<text text-anchor="middle" x="95" y="-62.6" font-family="Times,serif" font-size="14.00">TablesRoutingModule</text>
</g>
<!-- TablesRoutingModule&#45;&gt;TablesModule -->
<g id="edge3" class="edge">
<title>TablesRoutingModule&#45;&gt;TablesModule</title>
<path fill="none" stroke="black" d="M95,-84.91C95,-104.14 95,-131.8 95,-131.8 95,-131.8 258.56,-131.8 258.56,-131.8"/>
<polygon fill="black" stroke="black" points="258.56,-135.3 268.56,-131.8 258.56,-128.3 258.56,-135.3"/>
</g>
<!-- DataService -->
<g id="node5" class="node">
<title>DataService</title>
<ellipse fill="#fdb462" stroke="black" cx="528" cy="-66.8" rx="58.44" ry="18"/>
<text text-anchor="middle" x="528" y="-62.6" font-family="Times,serif" font-size="14.00">DataService</text>
</g>
<!-- DataService&#45;&gt;TablesModule -->
<g id="edge4" class="edge">
<title>DataService&#45;&gt;TablesModule</title>
<path fill="none" stroke="black" d="M528,-84.91C528,-104.14 528,-131.8 528,-131.8 528,-131.8 375.41,-131.8 375.41,-131.8"/>
<polygon fill="black" stroke="black" points="375.41,-128.3 365.41,-131.8 375.41,-135.3 375.41,-128.3"/>
</g>
</g>
</svg>
