<?xml version="1.0" encoding="UTF-8" standalone="no"?>
<!DOCTYPE svg PUBLIC "-//W3C//DTD SVG 1.1//EN"
 "http://www.w3.org/Graphics/SVG/1.1/DTD/svg11.dtd">
<!-- Generated by graphviz version 2.47.3 (20210619.1520)
 -->
<!-- Title: dependencies Pages: 1 -->
<svg width="592pt" height="174pt"
 viewBox="0.00 0.00 592.00 173.80" xmlns="http://www.w3.org/2000/svg" xmlns:xlink="http://www.w3.org/1999/xlink">
<g id="graph0" class="graph" transform="scale(1 1) rotate(0) translate(4 169.8)">
<title>dependencies</title>
<polygon fill="white" stroke="transparent" points="-4,4 -4,-169.8 588,-169.8 588,4 -4,4"/>
<text text-anchor="middle" x="292" y="-8.2" font-family="sans-serif" font-size="14.00">dependencies</text>
<g id="clust1" class="cluster">
<title>cluster_TablesModule</title>
<polygon fill="none" stroke="black" stroke-dasharray="1,5" points="8,-32.8 8,-157.8 576,-157.8 576,-32.8 8,-32.8"/>
</g>
<g id="clust5" class="cluster">
<title>cluster_TablesModule_imports</title>
<polygon fill="none" stroke="black" points="296,-40.8 296,-92.8 568,-92.8 568,-40.8 296,-40.8"/>
</g>
<g id="clust2" class="cluster">
<title>cluster_TablesModule_declarations</title>
<polygon fill="none" stroke="black" points="16,-40.8 16,-92.8 288,-92.8 288,-40.8 16,-40.8"/>
</g>
<!-- SearchComponent -->
<g id="node1" class="node">
<title>SearchComponent</title>
<polygon fill="#ffffb3" stroke="black" points="279.92,-84.8 160.08,-84.8 160.08,-48.8 279.92,-48.8 279.92,-84.8"/>
<text text-anchor="middle" x="220" y="-62.6" font-family="Times,serif" font-size="14.00">SearchComponent</text>
</g>
<!-- TablesModule -->
<g id="node3" class="node">
<title>TablesModule</title>
<polygon fill="#8dd3c7" stroke="black" points="345.37,-149.8 342.37,-153.8 321.37,-153.8 318.37,-149.8 248.63,-149.8 248.63,-113.8 345.37,-113.8 345.37,-149.8"/>
<text text-anchor="middle" x="297" y="-127.6" font-family="Times,serif" font-size="14.00">TablesModule</text>
</g>
<!-- SearchComponent&#45;&gt;TablesModule -->
<g id="edge1" class="edge">
<title>SearchComponent&#45;&gt;TablesModule</title>
<path fill="none" stroke="black" d="M264.14,-84.91C264.14,-84.91 264.14,-103.79 264.14,-103.79"/>
<polygon fill="black" stroke="black" points="260.64,-103.79 264.14,-113.79 267.64,-103.79 260.64,-103.79"/>
</g>
<!-- TablesComponent -->
<g id="node2" class="node">
<title>TablesComponent</title>
<polygon fill="#ffffb3" stroke="black" points="142.15,-84.8 23.85,-84.8 23.85,-48.8 142.15,-48.8 142.15,-84.8"/>
<text text-anchor="middle" x="83" y="-62.6" font-family="Times,serif" font-size="14.00">TablesComponent</text>
</g>
<!-- TablesComponent&#45;&gt;TablesModule -->
<g id="edge2" class="edge">
<title>TablesComponent&#45;&gt;TablesModule</title>
<path fill="none" stroke="black" d="M83,-84.91C83,-104.14 83,-131.8 83,-131.8 83,-131.8 238.44,-131.8 238.44,-131.8"/>
<polygon fill="black" stroke="black" points="238.44,-135.3 248.44,-131.8 238.44,-128.3 238.44,-135.3"/>
</g>
<!-- FormsModule -->
<g id="node4" class="node">
<title>FormsModule</title>
<polygon fill="#8dd3c7" stroke="black" points="559.83,-84.8 556.83,-88.8 535.83,-88.8 532.83,-84.8 464.17,-84.8 464.17,-48.8 559.83,-48.8 559.83,-84.8"/>
<text text-anchor="middle" x="512" y="-62.6" font-family="Times,serif" font-size="14.00">FormsModule</text>
</g>
<!-- FormsModule&#45;&gt;TablesModule -->
<g id="edge3" class="edge">
<title>FormsModule&#45;&gt;TablesModule</title>
<path fill="none" stroke="black" d="M512,-84.91C512,-104.14 512,-131.8 512,-131.8 512,-131.8 355.52,-131.8 355.52,-131.8"/>
<polygon fill="black" stroke="black" points="355.52,-128.3 345.52,-131.8 355.52,-135.3 355.52,-128.3"/>
</g>
<!-- TablesRoutingModule -->
<g id="node5" class="node">
<title>TablesRoutingModule</title>
<polygon fill="#8dd3c7" stroke="black" points="445.98,-84.8 442.98,-88.8 421.98,-88.8 418.98,-84.8 304.02,-84.8 304.02,-48.8 445.98,-48.8 445.98,-84.8"/>
<text text-anchor="middle" x="375" y="-62.6" font-family="Times,serif" font-size="14.00">TablesRoutingModule</text>
</g>
<!-- TablesRoutingModule&#45;&gt;TablesModule -->
<g id="edge4" class="edge">
<title>TablesRoutingModule&#45;&gt;TablesModule</title>
<path fill="none" stroke="black" d="M324.72,-84.91C324.72,-84.91 324.72,-103.79 324.72,-103.79"/>
<polygon fill="black" stroke="black" points="321.22,-103.79 324.72,-113.79 328.22,-103.79 321.22,-103.79"/>
</g>
</g>
</svg>
