<?xml version="1.0" encoding="UTF-8" standalone="no"?>
<!DOCTYPE svg PUBLIC "-//W3C//DTD SVG 1.1//EN"
 "http://www.w3.org/Graphics/SVG/1.1/DTD/svg11.dtd">
<!-- Generated by graphviz version 2.47.3 (20210619.1520)
 -->
<!-- Title: dependencies Pages: 1 -->
<svg width="544pt" height="174pt"
 viewBox="0.00 0.00 544.00 173.80" xmlns="http://www.w3.org/2000/svg" xmlns:xlink="http://www.w3.org/1999/xlink">
<g id="graph0" class="graph" transform="scale(1 1) rotate(0) translate(4 169.8)">
<title>dependencies</title>
<polygon fill="white" stroke="transparent" points="-4,4 -4,-169.8 540,-169.8 540,4 -4,4"/>
<text text-anchor="middle" x="268" y="-8.2" font-family="sans-serif" font-size="14.00">dependencies</text>
<g id="clust1" class="cluster">
<title>cluster_AddCandidateModule</title>
<polygon fill="none" stroke="black" stroke-dasharray="1,5" points="8,-32.8 8,-157.8 528,-157.8 528,-32.8 8,-32.8"/>
</g>
<g id="clust2" class="cluster">
<title>cluster_AddCandidateModule_declarations</title>
<polygon fill="none" stroke="black" points="342,-40.8 342,-92.8 520,-92.8 520,-40.8 342,-40.8"/>
</g>
<g id="clust4" class="cluster">
<title>cluster_AddCandidateModule_imports</title>
<polygon fill="none" stroke="black" points="16,-40.8 16,-92.8 334,-92.8 334,-40.8 16,-40.8"/>
</g>
<!-- AddCandidateComponent -->
<g id="node1" class="node">
<title>AddCandidateComponent</title>
<polygon fill="#ffffb3" stroke="black" points="512.2,-84.8 349.8,-84.8 349.8,-48.8 512.2,-48.8 512.2,-84.8"/>
<text text-anchor="middle" x="431" y="-62.6" font-family="Times,serif" font-size="14.00">AddCandidateComponent</text>
</g>
<!-- AddCandidateModule -->
<g id="node2" class="node">
<title>AddCandidateModule</title>
<polygon fill="#8dd3c7" stroke="black" points="303.42,-149.8 300.42,-153.8 279.42,-153.8 276.42,-149.8 162.58,-149.8 162.58,-113.8 303.42,-113.8 303.42,-149.8"/>
<text text-anchor="middle" x="233" y="-127.6" font-family="Times,serif" font-size="14.00">AddCandidateModule</text>
</g>
<!-- AddCandidateComponent&#45;&gt;AddCandidateModule -->
<g id="edge1" class="edge">
<title>AddCandidateComponent&#45;&gt;AddCandidateModule</title>
<path fill="none" stroke="black" d="M431,-84.91C431,-104.14 431,-131.8 431,-131.8 431,-131.8 313.36,-131.8 313.36,-131.8"/>
<polygon fill="black" stroke="black" points="313.36,-128.3 303.36,-131.8 313.36,-135.3 313.36,-128.3"/>
</g>
<!-- AddCandidateRoutingModule -->
<g id="node3" class="node">
<title>AddCandidateRoutingModule</title>
<polygon fill="#8dd3c7" stroke="black" points="325.54,-84.8 322.54,-88.8 301.54,-88.8 298.54,-84.8 140.46,-84.8 140.46,-48.8 325.54,-48.8 325.54,-84.8"/>
<text text-anchor="middle" x="233" y="-62.6" font-family="Times,serif" font-size="14.00">AddCandidateRoutingModule</text>
</g>
<!-- AddCandidateRoutingModule&#45;&gt;AddCandidateModule -->
<g id="edge2" class="edge">
<title>AddCandidateRoutingModule&#45;&gt;AddCandidateModule</title>
<path fill="none" stroke="black" d="M233,-84.91C233,-84.91 233,-103.79 233,-103.79"/>
<polygon fill="black" stroke="black" points="229.5,-103.79 233,-113.79 236.5,-103.79 229.5,-103.79"/>
</g>
<!-- SharedModule -->
<g id="node4" class="node">
<title>SharedModule</title>
<polygon fill="#8dd3c7" stroke="black" points="122.42,-84.8 119.42,-88.8 98.42,-88.8 95.42,-84.8 23.58,-84.8 23.58,-48.8 122.42,-48.8 122.42,-84.8"/>
<text text-anchor="middle" x="73" y="-62.6" font-family="Times,serif" font-size="14.00">SharedModule</text>
</g>
<!-- SharedModule&#45;&gt;AddCandidateModule -->
<g id="edge3" class="edge">
<title>SharedModule&#45;&gt;AddCandidateModule</title>
<path fill="none" stroke="black" d="M73,-84.91C73,-104.14 73,-131.8 73,-131.8 73,-131.8 152.36,-131.8 152.36,-131.8"/>
<polygon fill="black" stroke="black" points="152.36,-135.3 162.36,-131.8 152.36,-128.3 152.36,-135.3"/>
</g>
</g>
</svg>
