<?xml version="1.0" encoding="UTF-8" standalone="no"?>
<!DOCTYPE svg PUBLIC "-//W3C//DTD SVG 1.1//EN"
 "http://www.w3.org/Graphics/SVG/1.1/DTD/svg11.dtd">
<!-- Generated by graphviz version 2.47.3 (20210619.1520)
 -->
<!-- Title: dependencies Pages: 1 -->
<svg width="1515pt" height="174pt"
 viewBox="0.00 0.00 1515.00 173.80" xmlns="http://www.w3.org/2000/svg" xmlns:xlink="http://www.w3.org/1999/xlink">
<g id="graph0" class="graph" transform="scale(1 1) rotate(0) translate(4 169.8)">
<title>dependencies</title>
<polygon fill="white" stroke="transparent" points="-4,4 -4,-169.8 1511,-169.8 1511,4 -4,4"/>
<text text-anchor="middle" x="753.5" y="-8.2" font-family="sans-serif" font-size="14.00">dependencies</text>
<g id="clust1" class="cluster">
<title>cluster_ChartsModule</title>
<polygon fill="none" stroke="black" stroke-dasharray="1,5" points="8,-32.8 8,-157.8 1499,-157.8 1499,-32.8 8,-32.8"/>
</g>
<g id="clust10" class="cluster">
<title>cluster_ChartsModule_imports</title>
<polygon fill="none" stroke="black" points="1239,-40.8 1239,-92.8 1491,-92.8 1491,-40.8 1239,-40.8"/>
</g>
<g id="clust2" class="cluster">
<title>cluster_ChartsModule_declarations</title>
<polygon fill="none" stroke="black" points="156,-40.8 156,-92.8 1231,-92.8 1231,-40.8 156,-40.8"/>
</g>
<g id="clust13" class="cluster">
<title>cluster_ChartsModule_providers</title>
<polygon fill="none" stroke="black" points="16,-40.8 16,-92.8 148,-92.8 148,-40.8 16,-40.8"/>
</g>
<!-- BarChartComponent -->
<g id="node1" class="node">
<title>BarChartComponent</title>
<polygon fill="#ffffb3" stroke="black" points="1223.15,-84.8 1090.85,-84.8 1090.85,-48.8 1223.15,-48.8 1223.15,-84.8"/>
<text text-anchor="middle" x="1157" y="-62.6" font-family="Times,serif" font-size="14.00">BarChartComponent</text>
</g>
<!-- ChartsModule -->
<g id="node8" class="node">
<title>ChartsModule</title>
<polygon fill="#8dd3c7" stroke="black" points="825.1,-149.8 822.1,-153.8 801.1,-153.8 798.1,-149.8 728.9,-149.8 728.9,-113.8 825.1,-113.8 825.1,-149.8"/>
<text text-anchor="middle" x="777" y="-127.6" font-family="Times,serif" font-size="14.00">ChartsModule</text>
</g>
<!-- BarChartComponent&#45;&gt;ChartsModule -->
<g id="edge1" class="edge">
<title>BarChartComponent&#45;&gt;ChartsModule</title>
<path fill="none" stroke="black" d="M1157,-85.07C1157,-103.36 1157,-128.8 1157,-128.8 1157,-128.8 835.13,-128.8 835.13,-128.8"/>
<polygon fill="black" stroke="black" points="835.13,-125.3 825.13,-128.8 835.13,-132.3 835.13,-125.3"/>
</g>
<!-- DonutChartComponent -->
<g id="node2" class="node">
<title>DonutChartComponent</title>
<polygon fill="#ffffb3" stroke="black" points="1072.93,-84.8 925.07,-84.8 925.07,-48.8 1072.93,-48.8 1072.93,-84.8"/>
<text text-anchor="middle" x="999" y="-62.6" font-family="Times,serif" font-size="14.00">DonutChartComponent</text>
</g>
<!-- DonutChartComponent&#45;&gt;ChartsModule -->
<g id="edge2" class="edge">
<title>DonutChartComponent&#45;&gt;ChartsModule</title>
<path fill="none" stroke="black" d="M999,-84.81C999,-100.85 999,-121.8 999,-121.8 999,-121.8 835.17,-121.8 835.17,-121.8"/>
<polygon fill="black" stroke="black" points="835.17,-118.3 825.17,-121.8 835.17,-125.3 835.17,-118.3"/>
</g>
<!-- HomeComponent -->
<g id="node3" class="node">
<title>HomeComponent</title>
<polygon fill="#ffffb3" stroke="black" points="907.55,-84.8 792.45,-84.8 792.45,-48.8 907.55,-48.8 907.55,-84.8"/>
<text text-anchor="middle" x="850" y="-62.6" font-family="Times,serif" font-size="14.00">HomeComponent</text>
</g>
<!-- HomeComponent&#45;&gt;ChartsModule -->
<g id="edge3" class="edge">
<title>HomeComponent&#45;&gt;ChartsModule</title>
<path fill="none" stroke="black" d="M808.64,-84.91C808.64,-84.91 808.64,-103.79 808.64,-103.79"/>
<polygon fill="black" stroke="black" points="805.14,-103.79 808.64,-113.79 812.14,-103.79 805.14,-103.79"/>
</g>
<!-- LineChartComponent -->
<g id="node4" class="node">
<title>LineChartComponent</title>
<polygon fill="#ffffb3" stroke="black" points="774.09,-84.8 635.91,-84.8 635.91,-48.8 774.09,-48.8 774.09,-84.8"/>
<text text-anchor="middle" x="705" y="-62.6" font-family="Times,serif" font-size="14.00">LineChartComponent</text>
</g>
<!-- LineChartComponent&#45;&gt;ChartsModule -->
<g id="edge4" class="edge">
<title>LineChartComponent&#45;&gt;ChartsModule</title>
<path fill="none" stroke="black" d="M751.5,-84.91C751.5,-84.91 751.5,-103.79 751.5,-103.79"/>
<polygon fill="black" stroke="black" points="748,-103.79 751.5,-113.79 755,-103.79 748,-103.79"/>
</g>
<!-- PieChartComponent -->
<g id="node5" class="node">
<title>PieChartComponent</title>
<polygon fill="#ffffb3" stroke="black" points="618.32,-84.8 487.68,-84.8 487.68,-48.8 618.32,-48.8 618.32,-84.8"/>
<text text-anchor="middle" x="553" y="-62.6" font-family="Times,serif" font-size="14.00">PieChartComponent</text>
</g>
<!-- PieChartComponent&#45;&gt;ChartsModule -->
<g id="edge5" class="edge">
<title>PieChartComponent&#45;&gt;ChartsModule</title>
<path fill="none" stroke="black" d="M553,-84.81C553,-100.85 553,-121.8 553,-121.8 553,-121.8 718.95,-121.8 718.95,-121.8"/>
<polygon fill="black" stroke="black" points="718.95,-125.3 728.95,-121.8 718.95,-118.3 718.95,-125.3"/>
</g>
<!-- PolarChartComponent -->
<g id="node6" class="node">
<title>PolarChartComponent</title>
<polygon fill="#ffffb3" stroke="black" points="469.98,-84.8 328.02,-84.8 328.02,-48.8 469.98,-48.8 469.98,-84.8"/>
<text text-anchor="middle" x="399" y="-62.6" font-family="Times,serif" font-size="14.00">PolarChartComponent</text>
</g>
<!-- PolarChartComponent&#45;&gt;ChartsModule -->
<g id="edge6" class="edge">
<title>PolarChartComponent&#45;&gt;ChartsModule</title>
<path fill="none" stroke="black" d="M399,-85.07C399,-103.36 399,-128.8 399,-128.8 399,-128.8 718.74,-128.8 718.74,-128.8"/>
<polygon fill="black" stroke="black" points="718.74,-132.3 728.74,-128.8 718.74,-125.3 718.74,-132.3"/>
</g>
<!-- RadarChartComponent -->
<g id="node7" class="node">
<title>RadarChartComponent</title>
<polygon fill="#ffffb3" stroke="black" points="309.86,-84.8 164.14,-84.8 164.14,-48.8 309.86,-48.8 309.86,-84.8"/>
<text text-anchor="middle" x="237" y="-62.6" font-family="Times,serif" font-size="14.00">RadarChartComponent</text>
</g>
<!-- RadarChartComponent&#45;&gt;ChartsModule -->
<g id="edge7" class="edge">
<title>RadarChartComponent&#45;&gt;ChartsModule</title>
<path fill="none" stroke="black" d="M237,-84.93C237,-105.37 237,-135.8 237,-135.8 237,-135.8 718.6,-135.8 718.6,-135.8"/>
<polygon fill="black" stroke="black" points="718.6,-139.3 728.6,-135.8 718.6,-132.3 718.6,-139.3"/>
</g>
<!-- ChartsRoutingModule -->
<g id="node9" class="node">
<title>ChartsRoutingModule</title>
<polygon fill="#8dd3c7" stroke="black" points="1482.71,-84.8 1479.71,-88.8 1458.71,-88.8 1455.71,-84.8 1341.29,-84.8 1341.29,-48.8 1482.71,-48.8 1482.71,-84.8"/>
<text text-anchor="middle" x="1412" y="-62.6" font-family="Times,serif" font-size="14.00">ChartsRoutingModule</text>
</g>
<!-- ChartsRoutingModule&#45;&gt;ChartsModule -->
<g id="edge8" class="edge">
<title>ChartsRoutingModule&#45;&gt;ChartsModule</title>
<path fill="none" stroke="black" d="M1412,-84.81C1412,-107.29 1412,-142.8 1412,-142.8 1412,-142.8 835.25,-142.8 835.25,-142.8"/>
<polygon fill="black" stroke="black" points="835.25,-139.3 825.25,-142.8 835.25,-146.3 835.25,-139.3"/>
</g>
<!-- Ng2Charts -->
<g id="node10" class="node">
<title>Ng2Charts</title>
<polygon fill="#8dd3c7" stroke="black" points="1323.15,-84.8 1320.15,-88.8 1299.15,-88.8 1296.15,-84.8 1246.85,-84.8 1246.85,-48.8 1323.15,-48.8 1323.15,-84.8"/>
<text text-anchor="middle" x="1285" y="-62.6" font-family="Times,serif" font-size="14.00">Ng2Charts</text>
</g>
<!-- Ng2Charts&#45;&gt;ChartsModule -->
<g id="edge9" class="edge">
<title>Ng2Charts&#45;&gt;ChartsModule</title>
<path fill="none" stroke="black" d="M1285,-84.93C1285,-105.37 1285,-135.8 1285,-135.8 1285,-135.8 835.25,-135.8 835.25,-135.8"/>
<polygon fill="black" stroke="black" points="835.25,-132.3 825.25,-135.8 835.25,-139.3 835.25,-132.3"/>
</g>
<!-- DataService -->
<g id="node11" class="node">
<title>DataService</title>
<ellipse fill="#fdb462" stroke="black" cx="82" cy="-66.8" rx="58.44" ry="18"/>
<text text-anchor="middle" x="82" y="-62.6" font-family="Times,serif" font-size="14.00">DataService</text>
</g>
<!-- DataService&#45;&gt;ChartsModule -->
<g id="edge10" class="edge">
<title>DataService&#45;&gt;ChartsModule</title>
<path fill="none" stroke="black" d="M82,-84.81C82,-107.29 82,-142.8 82,-142.8 82,-142.8 718.68,-142.8 718.68,-142.8"/>
<polygon fill="black" stroke="black" points="718.68,-146.3 728.68,-142.8 718.68,-139.3 718.68,-146.3"/>
</g>
</g>
</svg>
