<?xml version="1.0" encoding="UTF-8" standalone="no"?>
<!DOCTYPE svg PUBLIC "-//W3C//DTD SVG 1.1//EN"
 "http://www.w3.org/Graphics/SVG/1.1/DTD/svg11.dtd">
<!-- Generated by graphviz version 2.47.3 (20210619.1520)
 -->
<!-- Title: dependencies Pages: 1 -->
<svg width="1515pt" height="174pt"
 viewBox="0.00 0.00 1515.00 173.80" xmlns="http://www.w3.org/2000/svg" xmlns:xlink="http://www.w3.org/1999/xlink">
<g id="graph0" class="graph" transform="scale(1 1) rotate(0) translate(4 169.8)">
<title>dependencies</title>
<polygon fill="white" stroke="transparent" points="-4,4 -4,-169.8 1511,-169.8 1511,4 -4,4"/>
<text text-anchor="middle" x="753.5" y="-8.2" font-family="sans-serif" font-size="14.00">dependencies</text>
<g id="clust1" class="cluster">
<title>cluster_ChartsModule</title>
<polygon fill="none" stroke="black" stroke-dasharray="1,5" points="8,-32.8 8,-157.8 1499,-157.8 1499,-32.8 8,-32.8"/>
</g>
<g id="clust2" class="cluster">
<title>cluster_ChartsModule_declarations</title>
<polygon fill="none" stroke="black" points="416,-40.8 416,-92.8 1491,-92.8 1491,-40.8 416,-40.8"/>
</g>
<g id="clust13" class="cluster">
<title>cluster_ChartsModule_providers</title>
<polygon fill="none" stroke="black" points="276,-40.8 276,-92.8 408,-92.8 408,-40.8 276,-40.8"/>
</g>
<g id="clust10" class="cluster">
<title>cluster_ChartsModule_imports</title>
<polygon fill="none" stroke="black" points="16,-40.8 16,-92.8 268,-92.8 268,-40.8 16,-40.8"/>
</g>
<!-- BarChartComponent -->
<g id="node1" class="node">
<title>BarChartComponent</title>
<polygon fill="#ffffb3" stroke="black" points="1483.15,-84.8 1350.85,-84.8 1350.85,-48.8 1483.15,-48.8 1483.15,-84.8"/>
<text text-anchor="middle" x="1417" y="-62.6" font-family="Times,serif" font-size="14.00">BarChartComponent</text>
</g>
<!-- ChartsModule -->
<g id="node8" class="node">
<title>ChartsModule</title>
<polygon fill="#8dd3c7" stroke="black" points="784.1,-149.8 781.1,-153.8 760.1,-153.8 757.1,-149.8 687.9,-149.8 687.9,-113.8 784.1,-113.8 784.1,-149.8"/>
<text text-anchor="middle" x="736" y="-127.6" font-family="Times,serif" font-size="14.00">ChartsModule</text>
</g>
<!-- BarChartComponent&#45;&gt;ChartsModule -->
<g id="edge1" class="edge">
<title>BarChartComponent&#45;&gt;ChartsModule</title>
<path fill="none" stroke="black" d="M1417,-84.81C1417,-107.29 1417,-142.8 1417,-142.8 1417,-142.8 794.16,-142.8 794.16,-142.8"/>
<polygon fill="black" stroke="black" points="794.16,-139.3 784.16,-142.8 794.16,-146.3 794.16,-139.3"/>
</g>
<!-- DonutChartComponent -->
<g id="node2" class="node">
<title>DonutChartComponent</title>
<polygon fill="#ffffb3" stroke="black" points="1332.93,-84.8 1185.07,-84.8 1185.07,-48.8 1332.93,-48.8 1332.93,-84.8"/>
<text text-anchor="middle" x="1259" y="-62.6" font-family="Times,serif" font-size="14.00">DonutChartComponent</text>
</g>
<!-- DonutChartComponent&#45;&gt;ChartsModule -->
<g id="edge2" class="edge">
<title>DonutChartComponent&#45;&gt;ChartsModule</title>
<path fill="none" stroke="black" d="M1259,-84.93C1259,-105.37 1259,-135.8 1259,-135.8 1259,-135.8 794.27,-135.8 794.27,-135.8"/>
<polygon fill="black" stroke="black" points="794.27,-132.3 784.27,-135.8 794.27,-139.3 794.27,-132.3"/>
</g>
<!-- HomeComponent -->
<g id="node3" class="node">
<title>HomeComponent</title>
<polygon fill="#ffffb3" stroke="black" points="1167.55,-84.8 1052.45,-84.8 1052.45,-48.8 1167.55,-48.8 1167.55,-84.8"/>
<text text-anchor="middle" x="1110" y="-62.6" font-family="Times,serif" font-size="14.00">HomeComponent</text>
</g>
<!-- HomeComponent&#45;&gt;ChartsModule -->
<g id="edge3" class="edge">
<title>HomeComponent&#45;&gt;ChartsModule</title>
<path fill="none" stroke="black" d="M1110,-85.07C1110,-103.36 1110,-128.8 1110,-128.8 1110,-128.8 794.13,-128.8 794.13,-128.8"/>
<polygon fill="black" stroke="black" points="794.13,-125.3 784.13,-128.8 794.13,-132.3 794.13,-125.3"/>
</g>
<!-- LineChartComponent -->
<g id="node4" class="node">
<title>LineChartComponent</title>
<polygon fill="#ffffb3" stroke="black" points="1034.09,-84.8 895.91,-84.8 895.91,-48.8 1034.09,-48.8 1034.09,-84.8"/>
<text text-anchor="middle" x="965" y="-62.6" font-family="Times,serif" font-size="14.00">LineChartComponent</text>
</g>
<!-- LineChartComponent&#45;&gt;ChartsModule -->
<g id="edge4" class="edge">
<title>LineChartComponent&#45;&gt;ChartsModule</title>
<path fill="none" stroke="black" d="M965,-84.81C965,-100.85 965,-121.8 965,-121.8 965,-121.8 794.29,-121.8 794.29,-121.8"/>
<polygon fill="black" stroke="black" points="794.29,-118.3 784.29,-121.8 794.29,-125.3 794.29,-118.3"/>
</g>
<!-- PieChartComponent -->
<g id="node5" class="node">
<title>PieChartComponent</title>
<polygon fill="#ffffb3" stroke="black" points="878.32,-84.8 747.68,-84.8 747.68,-48.8 878.32,-48.8 878.32,-84.8"/>
<text text-anchor="middle" x="813" y="-62.6" font-family="Times,serif" font-size="14.00">PieChartComponent</text>
</g>
<!-- PieChartComponent&#45;&gt;ChartsModule -->
<g id="edge5" class="edge">
<title>PieChartComponent&#45;&gt;ChartsModule</title>
<path fill="none" stroke="black" d="M765.94,-84.91C765.94,-84.91 765.94,-103.79 765.94,-103.79"/>
<polygon fill="black" stroke="black" points="762.44,-103.79 765.94,-113.79 769.44,-103.79 762.44,-103.79"/>
</g>
<!-- PolarChartComponent -->
<g id="node6" class="node">
<title>PolarChartComponent</title>
<polygon fill="#ffffb3" stroke="black" points="729.98,-84.8 588.02,-84.8 588.02,-48.8 729.98,-48.8 729.98,-84.8"/>
<text text-anchor="middle" x="659" y="-62.6" font-family="Times,serif" font-size="14.00">PolarChartComponent</text>
</g>
<!-- PolarChartComponent&#45;&gt;ChartsModule -->
<g id="edge6" class="edge">
<title>PolarChartComponent&#45;&gt;ChartsModule</title>
<path fill="none" stroke="black" d="M708.97,-84.91C708.97,-84.91 708.97,-103.79 708.97,-103.79"/>
<polygon fill="black" stroke="black" points="705.47,-103.79 708.97,-113.79 712.47,-103.79 705.47,-103.79"/>
</g>
<!-- RadarChartComponent -->
<g id="node7" class="node">
<title>RadarChartComponent</title>
<polygon fill="#ffffb3" stroke="black" points="569.86,-84.8 424.14,-84.8 424.14,-48.8 569.86,-48.8 569.86,-84.8"/>
<text text-anchor="middle" x="497" y="-62.6" font-family="Times,serif" font-size="14.00">RadarChartComponent</text>
</g>
<!-- RadarChartComponent&#45;&gt;ChartsModule -->
<g id="edge7" class="edge">
<title>RadarChartComponent&#45;&gt;ChartsModule</title>
<path fill="none" stroke="black" d="M497,-84.81C497,-100.85 497,-121.8 497,-121.8 497,-121.8 677.92,-121.8 677.92,-121.8"/>
<polygon fill="black" stroke="black" points="677.92,-125.3 687.92,-121.8 677.92,-118.3 677.92,-125.3"/>
</g>
<!-- ChartsRoutingModule -->
<g id="node9" class="node">
<title>ChartsRoutingModule</title>
<polygon fill="#8dd3c7" stroke="black" points="259.71,-84.8 256.71,-88.8 235.71,-88.8 232.71,-84.8 118.29,-84.8 118.29,-48.8 259.71,-48.8 259.71,-84.8"/>
<text text-anchor="middle" x="189" y="-62.6" font-family="Times,serif" font-size="14.00">ChartsRoutingModule</text>
</g>
<!-- ChartsRoutingModule&#45;&gt;ChartsModule -->
<g id="edge8" class="edge">
<title>ChartsRoutingModule&#45;&gt;ChartsModule</title>
<path fill="none" stroke="black" d="M189,-84.93C189,-105.37 189,-135.8 189,-135.8 189,-135.8 677.94,-135.8 677.94,-135.8"/>
<polygon fill="black" stroke="black" points="677.94,-139.3 687.94,-135.8 677.94,-132.3 677.94,-139.3"/>
</g>
<!-- Ng2Charts -->
<g id="node10" class="node">
<title>Ng2Charts</title>
<polygon fill="#8dd3c7" stroke="black" points="100.15,-84.8 97.15,-88.8 76.15,-88.8 73.15,-84.8 23.85,-84.8 23.85,-48.8 100.15,-48.8 100.15,-84.8"/>
<text text-anchor="middle" x="62" y="-62.6" font-family="Times,serif" font-size="14.00">Ng2Charts</text>
</g>
<!-- Ng2Charts&#45;&gt;ChartsModule -->
<g id="edge9" class="edge">
<title>Ng2Charts&#45;&gt;ChartsModule</title>
<path fill="none" stroke="black" d="M62,-84.81C62,-107.29 62,-142.8 62,-142.8 62,-142.8 677.8,-142.8 677.8,-142.8"/>
<polygon fill="black" stroke="black" points="677.8,-146.3 687.8,-142.8 677.8,-139.3 677.8,-146.3"/>
</g>
<!-- DataService -->
<g id="node11" class="node">
<title>DataService</title>
<ellipse fill="#fdb462" stroke="black" cx="342" cy="-66.8" rx="58.44" ry="18"/>
<text text-anchor="middle" x="342" y="-62.6" font-family="Times,serif" font-size="14.00">DataService</text>
</g>
<!-- DataService&#45;&gt;ChartsModule -->
<g id="edge10" class="edge">
<title>DataService&#45;&gt;ChartsModule</title>
<path fill="none" stroke="black" d="M342,-85.07C342,-103.36 342,-128.8 342,-128.8 342,-128.8 677.69,-128.8 677.69,-128.8"/>
<polygon fill="black" stroke="black" points="677.69,-132.3 687.69,-128.8 677.69,-125.3 677.69,-132.3"/>
</g>
</g>
</svg>
