<?xml version="1.0" encoding="UTF-8" standalone="no"?>
<!DOCTYPE svg PUBLIC "-//W3C//DTD SVG 1.1//EN"
 "http://www.w3.org/Graphics/SVG/1.1/DTD/svg11.dtd">
<!-- Generated by graphviz version 2.47.3 (20210619.1520)
 -->
<!-- Title: dependencies Pages: 1 -->
<svg width="1515pt" height="174pt"
 viewBox="0.00 0.00 1515.00 173.80" xmlns="http://www.w3.org/2000/svg" xmlns:xlink="http://www.w3.org/1999/xlink">
<g id="graph0" class="graph" transform="scale(1 1) rotate(0) translate(4 169.8)">
<title>dependencies</title>
<polygon fill="white" stroke="transparent" points="-4,4 -4,-169.8 1511,-169.8 1511,4 -4,4"/>
<text text-anchor="middle" x="753.5" y="-8.2" font-family="sans-serif" font-size="14.00">dependencies</text>
<g id="clust1" class="cluster">
<title>cluster_ChartsModule</title>
<polygon fill="none" stroke="black" stroke-dasharray="1,5" points="8,-32.8 8,-157.8 1499,-157.8 1499,-32.8 8,-32.8"/>
</g>
<g id="clust13" class="cluster">
<title>cluster_ChartsModule_providers</title>
<polygon fill="none" stroke="black" points="1359,-40.8 1359,-92.8 1491,-92.8 1491,-40.8 1359,-40.8"/>
</g>
<g id="clust2" class="cluster">
<title>cluster_ChartsModule_declarations</title>
<polygon fill="none" stroke="black" points="276,-40.8 276,-92.8 1351,-92.8 1351,-40.8 276,-40.8"/>
</g>
<g id="clust10" class="cluster">
<title>cluster_ChartsModule_imports</title>
<polygon fill="none" stroke="black" points="16,-40.8 16,-92.8 268,-92.8 268,-40.8 16,-40.8"/>
</g>
<!-- BarChartComponent -->
<g id="node1" class="node">
<title>BarChartComponent</title>
<polygon fill="#ffffb3" stroke="black" points="1343.15,-84.8 1210.85,-84.8 1210.85,-48.8 1343.15,-48.8 1343.15,-84.8"/>
<text text-anchor="middle" x="1277" y="-62.6" font-family="Times,serif" font-size="14.00">BarChartComponent</text>
</g>
<!-- ChartsModule -->
<g id="node8" class="node">
<title>ChartsModule</title>
<polygon fill="#8dd3c7" stroke="black" points="797.1,-149.8 794.1,-153.8 773.1,-153.8 770.1,-149.8 700.9,-149.8 700.9,-113.8 797.1,-113.8 797.1,-149.8"/>
<text text-anchor="middle" x="749" y="-127.6" font-family="Times,serif" font-size="14.00">ChartsModule</text>
</g>
<!-- BarChartComponent&#45;&gt;ChartsModule -->
<g id="edge1" class="edge">
<title>BarChartComponent&#45;&gt;ChartsModule</title>
<path fill="none" stroke="black" d="M1277,-84.93C1277,-105.37 1277,-135.8 1277,-135.8 1277,-135.8 807.26,-135.8 807.26,-135.8"/>
<polygon fill="black" stroke="black" points="807.26,-132.3 797.26,-135.8 807.26,-139.3 807.26,-132.3"/>
</g>
<!-- DonutChartComponent -->
<g id="node2" class="node">
<title>DonutChartComponent</title>
<polygon fill="#ffffb3" stroke="black" points="1192.93,-84.8 1045.07,-84.8 1045.07,-48.8 1192.93,-48.8 1192.93,-84.8"/>
<text text-anchor="middle" x="1119" y="-62.6" font-family="Times,serif" font-size="14.00">DonutChartComponent</text>
</g>
<!-- DonutChartComponent&#45;&gt;ChartsModule -->
<g id="edge2" class="edge">
<title>DonutChartComponent&#45;&gt;ChartsModule</title>
<path fill="none" stroke="black" d="M1119,-85.07C1119,-103.36 1119,-128.8 1119,-128.8 1119,-128.8 807.37,-128.8 807.37,-128.8"/>
<polygon fill="black" stroke="black" points="807.37,-125.3 797.37,-128.8 807.37,-132.3 807.37,-125.3"/>
</g>
<!-- HomeComponent -->
<g id="node3" class="node">
<title>HomeComponent</title>
<polygon fill="#ffffb3" stroke="black" points="1027.55,-84.8 912.45,-84.8 912.45,-48.8 1027.55,-48.8 1027.55,-84.8"/>
<text text-anchor="middle" x="970" y="-62.6" font-family="Times,serif" font-size="14.00">HomeComponent</text>
</g>
<!-- HomeComponent&#45;&gt;ChartsModule -->
<g id="edge3" class="edge">
<title>HomeComponent&#45;&gt;ChartsModule</title>
<path fill="none" stroke="black" d="M970,-84.81C970,-100.85 970,-121.8 970,-121.8 970,-121.8 807.23,-121.8 807.23,-121.8"/>
<polygon fill="black" stroke="black" points="807.23,-118.3 797.23,-121.8 807.23,-125.3 807.23,-118.3"/>
</g>
<!-- LineChartComponent -->
<g id="node4" class="node">
<title>LineChartComponent</title>
<polygon fill="#ffffb3" stroke="black" points="894.09,-84.8 755.91,-84.8 755.91,-48.8 894.09,-48.8 894.09,-84.8"/>
<text text-anchor="middle" x="825" y="-62.6" font-family="Times,serif" font-size="14.00">LineChartComponent</text>
</g>
<!-- LineChartComponent&#45;&gt;ChartsModule -->
<g id="edge4" class="edge">
<title>LineChartComponent&#45;&gt;ChartsModule</title>
<path fill="none" stroke="black" d="M776.5,-84.91C776.5,-84.91 776.5,-103.79 776.5,-103.79"/>
<polygon fill="black" stroke="black" points="773,-103.79 776.5,-113.79 780,-103.79 773,-103.79"/>
</g>
<!-- PieChartComponent -->
<g id="node5" class="node">
<title>PieChartComponent</title>
<polygon fill="#ffffb3" stroke="black" points="738.32,-84.8 607.68,-84.8 607.68,-48.8 738.32,-48.8 738.32,-84.8"/>
<text text-anchor="middle" x="673" y="-62.6" font-family="Times,serif" font-size="14.00">PieChartComponent</text>
</g>
<!-- PieChartComponent&#45;&gt;ChartsModule -->
<g id="edge5" class="edge">
<title>PieChartComponent&#45;&gt;ChartsModule</title>
<path fill="none" stroke="black" d="M719.56,-84.91C719.56,-84.91 719.56,-103.79 719.56,-103.79"/>
<polygon fill="black" stroke="black" points="716.06,-103.79 719.56,-113.79 723.06,-103.79 716.06,-103.79"/>
</g>
<!-- PolarChartComponent -->
<g id="node6" class="node">
<title>PolarChartComponent</title>
<polygon fill="#ffffb3" stroke="black" points="589.98,-84.8 448.02,-84.8 448.02,-48.8 589.98,-48.8 589.98,-84.8"/>
<text text-anchor="middle" x="519" y="-62.6" font-family="Times,serif" font-size="14.00">PolarChartComponent</text>
</g>
<!-- PolarChartComponent&#45;&gt;ChartsModule -->
<g id="edge6" class="edge">
<title>PolarChartComponent&#45;&gt;ChartsModule</title>
<path fill="none" stroke="black" d="M519,-84.81C519,-100.85 519,-121.8 519,-121.8 519,-121.8 690.78,-121.8 690.78,-121.8"/>
<polygon fill="black" stroke="black" points="690.78,-125.3 700.78,-121.8 690.78,-118.3 690.78,-125.3"/>
</g>
<!-- RadarChartComponent -->
<g id="node7" class="node">
<title>RadarChartComponent</title>
<polygon fill="#ffffb3" stroke="black" points="429.86,-84.8 284.14,-84.8 284.14,-48.8 429.86,-48.8 429.86,-84.8"/>
<text text-anchor="middle" x="357" y="-62.6" font-family="Times,serif" font-size="14.00">RadarChartComponent</text>
</g>
<!-- RadarChartComponent&#45;&gt;ChartsModule -->
<g id="edge7" class="edge">
<title>RadarChartComponent&#45;&gt;ChartsModule</title>
<path fill="none" stroke="black" d="M357,-85.07C357,-103.36 357,-128.8 357,-128.8 357,-128.8 690.93,-128.8 690.93,-128.8"/>
<polygon fill="black" stroke="black" points="690.93,-132.3 700.93,-128.8 690.93,-125.3 690.93,-132.3"/>
</g>
<!-- ChartsRoutingModule -->
<g id="node9" class="node">
<title>ChartsRoutingModule</title>
<polygon fill="#8dd3c7" stroke="black" points="259.71,-84.8 256.71,-88.8 235.71,-88.8 232.71,-84.8 118.29,-84.8 118.29,-48.8 259.71,-48.8 259.71,-84.8"/>
<text text-anchor="middle" x="189" y="-62.6" font-family="Times,serif" font-size="14.00">ChartsRoutingModule</text>
</g>
<!-- ChartsRoutingModule&#45;&gt;ChartsModule -->
<g id="edge8" class="edge">
<title>ChartsRoutingModule&#45;&gt;ChartsModule</title>
<path fill="none" stroke="black" d="M189,-84.93C189,-105.37 189,-135.8 189,-135.8 189,-135.8 690.77,-135.8 690.77,-135.8"/>
<polygon fill="black" stroke="black" points="690.77,-139.3 700.77,-135.8 690.77,-132.3 690.77,-139.3"/>
</g>
<!-- Ng2Charts -->
<g id="node10" class="node">
<title>Ng2Charts</title>
<polygon fill="#8dd3c7" stroke="black" points="100.15,-84.8 97.15,-88.8 76.15,-88.8 73.15,-84.8 23.85,-84.8 23.85,-48.8 100.15,-48.8 100.15,-84.8"/>
<text text-anchor="middle" x="62" y="-62.6" font-family="Times,serif" font-size="14.00">Ng2Charts</text>
</g>
<!-- Ng2Charts&#45;&gt;ChartsModule -->
<g id="edge9" class="edge">
<title>Ng2Charts&#45;&gt;ChartsModule</title>
<path fill="none" stroke="black" d="M62,-84.81C62,-107.29 62,-142.8 62,-142.8 62,-142.8 690.69,-142.8 690.69,-142.8"/>
<polygon fill="black" stroke="black" points="690.69,-146.3 700.69,-142.8 690.69,-139.3 690.69,-146.3"/>
</g>
<!-- DataService -->
<g id="node11" class="node">
<title>DataService</title>
<ellipse fill="#fdb462" stroke="black" cx="1425" cy="-66.8" rx="58.44" ry="18"/>
<text text-anchor="middle" x="1425" y="-62.6" font-family="Times,serif" font-size="14.00">DataService</text>
</g>
<!-- DataService&#45;&gt;ChartsModule -->
<g id="edge10" class="edge">
<title>DataService&#45;&gt;ChartsModule</title>
<path fill="none" stroke="black" d="M1425,-84.81C1425,-107.29 1425,-142.8 1425,-142.8 1425,-142.8 807.07,-142.8 807.07,-142.8"/>
<polygon fill="black" stroke="black" points="807.07,-139.3 797.07,-142.8 807.07,-146.3 807.07,-139.3"/>
</g>
</g>
</svg>
