<?xml version="1.0" encoding="UTF-8" standalone="no"?>
<!DOCTYPE svg PUBLIC "-//W3C//DTD SVG 1.1//EN"
 "http://www.w3.org/Graphics/SVG/1.1/DTD/svg11.dtd">
<!-- Generated by graphviz version 2.47.3 (20210619.1520)
 -->
<!-- Title: dependencies Pages: 1 -->
<svg width="637pt" height="174pt"
 viewBox="0.00 0.00 637.00 173.80" xmlns="http://www.w3.org/2000/svg" xmlns:xlink="http://www.w3.org/1999/xlink">
<g id="graph0" class="graph" transform="scale(1 1) rotate(0) translate(4 169.8)">
<title>dependencies</title>
<polygon fill="white" stroke="transparent" points="-4,4 -4,-169.8 633,-169.8 633,4 -4,4"/>
<text text-anchor="middle" x="314.5" y="-8.2" font-family="sans-serif" font-size="14.00">dependencies</text>
<g id="clust1" class="cluster">
<title>cluster_AdminModule</title>
<polygon fill="none" stroke="black" stroke-dasharray="1,5" points="8,-32.8 8,-157.8 621,-157.8 621,-32.8 8,-32.8"/>
</g>
<g id="clust2" class="cluster">
<title>cluster_AdminModule_declarations</title>
<polygon fill="none" stroke="black" points="184,-40.8 184,-92.8 613,-92.8 613,-40.8 184,-40.8"/>
</g>
<g id="clust6" class="cluster">
<title>cluster_AdminModule_imports</title>
<polygon fill="none" stroke="black" points="16,-40.8 16,-92.8 176,-92.8 176,-40.8 16,-40.8"/>
</g>
<!-- LayoutComponent -->
<g id="node1" class="node">
<title>LayoutComponent</title>
<polygon fill="#ffffb3" stroke="black" points="605.49,-84.8 484.51,-84.8 484.51,-48.8 605.49,-48.8 605.49,-84.8"/>
<text text-anchor="middle" x="545" y="-62.6" font-family="Times,serif" font-size="14.00">LayoutComponent</text>
</g>
<!-- AdminModule -->
<g id="node4" class="node">
<title>AdminModule</title>
<polygon fill="#8dd3c7" stroke="black" points="378.44,-149.8 375.44,-153.8 354.44,-153.8 351.44,-149.8 279.56,-149.8 279.56,-113.8 378.44,-113.8 378.44,-149.8"/>
<text text-anchor="middle" x="329" y="-127.6" font-family="Times,serif" font-size="14.00">AdminModule</text>
</g>
<!-- LayoutComponent&#45;&gt;AdminModule -->
<g id="edge1" class="edge">
<title>LayoutComponent&#45;&gt;AdminModule</title>
<path fill="none" stroke="black" d="M545,-84.91C545,-104.14 545,-131.8 545,-131.8 545,-131.8 388.28,-131.8 388.28,-131.8"/>
<polygon fill="black" stroke="black" points="388.28,-128.3 378.28,-131.8 388.28,-135.3 388.28,-128.3"/>
</g>
<!-- SideNavComponent -->
<g id="node2" class="node">
<title>SideNavComponent</title>
<polygon fill="#ffffb3" stroke="black" points="466.54,-84.8 337.46,-84.8 337.46,-48.8 466.54,-48.8 466.54,-84.8"/>
<text text-anchor="middle" x="402" y="-62.6" font-family="Times,serif" font-size="14.00">SideNavComponent</text>
</g>
<!-- SideNavComponent&#45;&gt;AdminModule -->
<g id="edge2" class="edge">
<title>SideNavComponent&#45;&gt;AdminModule</title>
<path fill="none" stroke="black" d="M357.72,-84.91C357.72,-84.91 357.72,-103.79 357.72,-103.79"/>
<polygon fill="black" stroke="black" points="354.22,-103.79 357.72,-113.79 361.22,-103.79 354.22,-103.79"/>
</g>
<!-- TopNavComponent -->
<g id="node3" class="node">
<title>TopNavComponent</title>
<polygon fill="#ffffb3" stroke="black" points="319.71,-84.8 192.29,-84.8 192.29,-48.8 319.71,-48.8 319.71,-84.8"/>
<text text-anchor="middle" x="256" y="-62.6" font-family="Times,serif" font-size="14.00">TopNavComponent</text>
</g>
<!-- TopNavComponent&#45;&gt;AdminModule -->
<g id="edge3" class="edge">
<title>TopNavComponent&#45;&gt;AdminModule</title>
<path fill="none" stroke="black" d="M299.69,-84.91C299.69,-84.91 299.69,-103.79 299.69,-103.79"/>
<polygon fill="black" stroke="black" points="296.19,-103.79 299.69,-113.79 303.19,-103.79 296.19,-103.79"/>
</g>
<!-- AdminRoutingModule -->
<g id="node5" class="node">
<title>AdminRoutingModule</title>
<polygon fill="#8dd3c7" stroke="black" points="167.56,-84.8 164.56,-88.8 143.56,-88.8 140.56,-84.8 24.44,-84.8 24.44,-48.8 167.56,-48.8 167.56,-84.8"/>
<text text-anchor="middle" x="96" y="-62.6" font-family="Times,serif" font-size="14.00">AdminRoutingModule</text>
</g>
<!-- AdminRoutingModule&#45;&gt;AdminModule -->
<g id="edge4" class="edge">
<title>AdminRoutingModule&#45;&gt;AdminModule</title>
<path fill="none" stroke="black" d="M96,-84.91C96,-104.14 96,-131.8 96,-131.8 96,-131.8 269.59,-131.8 269.59,-131.8"/>
<polygon fill="black" stroke="black" points="269.59,-135.3 279.59,-131.8 269.59,-128.3 269.59,-135.3"/>
</g>
</g>
</svg>
