<?xml version="1.0" encoding="UTF-8" standalone="no"?>
<!DOCTYPE svg PUBLIC "-//W3C//DTD SVG 1.1//EN"
 "http://www.w3.org/Graphics/SVG/1.1/DTD/svg11.dtd">
<!-- Generated by graphviz version 2.47.3 (20210619.1520)
 -->
<!-- Title: dependencies Pages: 1 -->
<svg width="637pt" height="174pt"
 viewBox="0.00 0.00 637.00 173.80" xmlns="http://www.w3.org/2000/svg" xmlns:xlink="http://www.w3.org/1999/xlink">
<g id="graph0" class="graph" transform="scale(1 1) rotate(0) translate(4 169.8)">
<title>dependencies</title>
<polygon fill="white" stroke="transparent" points="-4,4 -4,-169.8 633,-169.8 633,4 -4,4"/>
<text text-anchor="middle" x="314.5" y="-8.2" font-family="sans-serif" font-size="14.00">dependencies</text>
<g id="clust1" class="cluster">
<title>cluster_AdminModule</title>
<polygon fill="none" stroke="black" stroke-dasharray="1,5" points="8,-32.8 8,-157.8 621,-157.8 621,-32.8 8,-32.8"/>
</g>
<g id="clust6" class="cluster">
<title>cluster_AdminModule_imports</title>
<polygon fill="none" stroke="black" points="453,-40.8 453,-92.8 613,-92.8 613,-40.8 453,-40.8"/>
</g>
<g id="clust2" class="cluster">
<title>cluster_AdminModule_declarations</title>
<polygon fill="none" stroke="black" points="16,-40.8 16,-92.8 445,-92.8 445,-40.8 16,-40.8"/>
</g>
<!-- LayoutComponent -->
<g id="node1" class="node">
<title>LayoutComponent</title>
<polygon fill="#ffffb3" stroke="black" points="437.49,-84.8 316.51,-84.8 316.51,-48.8 437.49,-48.8 437.49,-84.8"/>
<text text-anchor="middle" x="377" y="-62.6" font-family="Times,serif" font-size="14.00">LayoutComponent</text>
</g>
<!-- AdminModule -->
<g id="node4" class="node">
<title>AdminModule</title>
<polygon fill="#8dd3c7" stroke="black" points="354.44,-149.8 351.44,-153.8 330.44,-153.8 327.44,-149.8 255.56,-149.8 255.56,-113.8 354.44,-113.8 354.44,-149.8"/>
<text text-anchor="middle" x="305" y="-127.6" font-family="Times,serif" font-size="14.00">AdminModule</text>
</g>
<!-- LayoutComponent&#45;&gt;AdminModule -->
<g id="edge1" class="edge">
<title>LayoutComponent&#45;&gt;AdminModule</title>
<path fill="none" stroke="black" d="M335.36,-84.91C335.36,-84.91 335.36,-103.79 335.36,-103.79"/>
<polygon fill="black" stroke="black" points="331.86,-103.79 335.36,-113.79 338.86,-103.79 331.86,-103.79"/>
</g>
<!-- SideNavComponent -->
<g id="node2" class="node">
<title>SideNavComponent</title>
<polygon fill="#ffffb3" stroke="black" points="298.54,-84.8 169.46,-84.8 169.46,-48.8 298.54,-48.8 298.54,-84.8"/>
<text text-anchor="middle" x="234" y="-62.6" font-family="Times,serif" font-size="14.00">SideNavComponent</text>
</g>
<!-- SideNavComponent&#45;&gt;AdminModule -->
<g id="edge2" class="edge">
<title>SideNavComponent&#45;&gt;AdminModule</title>
<path fill="none" stroke="black" d="M277.28,-84.91C277.28,-84.91 277.28,-103.79 277.28,-103.79"/>
<polygon fill="black" stroke="black" points="273.78,-103.79 277.28,-113.79 280.78,-103.79 273.78,-103.79"/>
</g>
<!-- TopNavComponent -->
<g id="node3" class="node">
<title>TopNavComponent</title>
<polygon fill="#ffffb3" stroke="black" points="151.71,-84.8 24.29,-84.8 24.29,-48.8 151.71,-48.8 151.71,-84.8"/>
<text text-anchor="middle" x="88" y="-62.6" font-family="Times,serif" font-size="14.00">TopNavComponent</text>
</g>
<!-- TopNavComponent&#45;&gt;AdminModule -->
<g id="edge3" class="edge">
<title>TopNavComponent&#45;&gt;AdminModule</title>
<path fill="none" stroke="black" d="M88,-84.91C88,-104.14 88,-131.8 88,-131.8 88,-131.8 245.76,-131.8 245.76,-131.8"/>
<polygon fill="black" stroke="black" points="245.76,-135.3 255.76,-131.8 245.76,-128.3 245.76,-135.3"/>
</g>
<!-- AdminRoutingModule -->
<g id="node5" class="node">
<title>AdminRoutingModule</title>
<polygon fill="#8dd3c7" stroke="black" points="604.56,-84.8 601.56,-88.8 580.56,-88.8 577.56,-84.8 461.44,-84.8 461.44,-48.8 604.56,-48.8 604.56,-84.8"/>
<text text-anchor="middle" x="533" y="-62.6" font-family="Times,serif" font-size="14.00">AdminRoutingModule</text>
</g>
<!-- AdminRoutingModule&#45;&gt;AdminModule -->
<g id="edge4" class="edge">
<title>AdminRoutingModule&#45;&gt;AdminModule</title>
<path fill="none" stroke="black" d="M533,-84.91C533,-104.14 533,-131.8 533,-131.8 533,-131.8 364.47,-131.8 364.47,-131.8"/>
<polygon fill="black" stroke="black" points="364.47,-128.3 354.47,-131.8 364.47,-135.3 364.47,-128.3"/>
</g>
</g>
</svg>
