<?xml version="1.0" encoding="UTF-8" standalone="no"?>
<!DOCTYPE svg PUBLIC "-//W3C//DTD SVG 1.1//EN"
 "http://www.w3.org/Graphics/SVG/1.1/DTD/svg11.dtd">
<!-- Generated by graphviz version 2.47.3 (20210619.1520)
 -->
<!-- Title: dependencies Pages: 1 -->
<svg width="649pt" height="247pt"
 viewBox="0.00 0.00 649.00 246.80" xmlns="http://www.w3.org/2000/svg" xmlns:xlink="http://www.w3.org/1999/xlink">
<g id="graph0" class="graph" transform="scale(1 1) rotate(0) translate(4 242.8)">
<title>dependencies</title>
<polygon fill="white" stroke="transparent" points="-4,4 -4,-242.8 645,-242.8 645,4 -4,4"/>
<text text-anchor="middle" x="320.5" y="-8.2" font-family="sans-serif" font-size="14.00">dependencies</text>
<g id="clust1" class="cluster">
<title>cluster_AppModule</title>
<polygon fill="none" stroke="black" stroke-dasharray="1,5" points="8,-32.8 8,-230.8 633,-230.8 633,-32.8 8,-32.8"/>
</g>
<g id="clust4" class="cluster">
<title>cluster_AppModule_imports</title>
<polygon fill="none" stroke="black" points="146,-40.8 146,-92.8 625,-92.8 625,-40.8 146,-40.8"/>
</g>
<g id="clust6" class="cluster">
<title>cluster_AppModule_bootstrap</title>
<polygon fill="none" stroke="black" points="256,-170.8 256,-222.8 380,-222.8 380,-170.8 256,-170.8"/>
</g>
<g id="clust2" class="cluster">
<title>cluster_AppModule_declarations</title>
<polygon fill="none" stroke="black" points="16,-40.8 16,-92.8 138,-92.8 138,-40.8 16,-40.8"/>
</g>
<!-- AppComponent -->
<g id="node1" class="node">
<title>AppComponent</title>
<polygon fill="#ffffb3" stroke="black" points="129.94,-84.8 24.06,-84.8 24.06,-48.8 129.94,-48.8 129.94,-84.8"/>
<text text-anchor="middle" x="77" y="-62.6" font-family="Times,serif" font-size="14.00">AppComponent</text>
</g>
<!-- AppModule -->
<g id="node2" class="node">
<title>AppModule</title>
<polygon fill="#8dd3c7" stroke="black" points="359.66,-149.8 356.66,-153.8 335.66,-153.8 332.66,-149.8 276.34,-149.8 276.34,-113.8 359.66,-113.8 359.66,-149.8"/>
<text text-anchor="middle" x="318" y="-127.6" font-family="Times,serif" font-size="14.00">AppModule</text>
</g>
<!-- AppComponent&#45;&gt;AppModule -->
<g id="edge1" class="edge">
<title>AppComponent&#45;&gt;AppModule</title>
<path fill="none" stroke="black" d="M77,-85.08C77,-106.12 77,-137.8 77,-137.8 77,-137.8 266.3,-137.8 266.3,-137.8"/>
<polygon fill="black" stroke="black" points="266.3,-141.3 276.3,-137.8 266.3,-134.3 266.3,-141.3"/>
</g>
<!-- AppComponent  -->
<g id="node7" class="node">
<title>AppComponent </title>
<polygon fill="#80b1d3" stroke="black" points="372.44,-214.8 263.56,-214.8 263.56,-178.8 372.44,-178.8 372.44,-214.8"/>
<text text-anchor="middle" x="318" y="-192.6" font-family="Times,serif" font-size="14.00">AppComponent </text>
</g>
<!-- AppModule&#45;&gt;AppComponent  -->
<g id="edge6" class="edge">
<title>AppModule&#45;&gt;AppComponent </title>
<path fill="none" stroke="black" stroke-dasharray="1,5" d="M318,-149.91C318,-149.91 318,-168.79 318,-168.79"/>
<polygon fill="black" stroke="black" points="314.5,-168.79 318,-178.79 321.5,-168.79 314.5,-168.79"/>
</g>
<!-- AppRoutingModule -->
<g id="node3" class="node">
<title>AppRoutingModule</title>
<polygon fill="#8dd3c7" stroke="black" points="617.27,-84.8 614.27,-88.8 593.27,-88.8 590.27,-84.8 488.73,-84.8 488.73,-48.8 617.27,-48.8 617.27,-84.8"/>
<text text-anchor="middle" x="553" y="-62.6" font-family="Times,serif" font-size="14.00">AppRoutingModule</text>
</g>
<!-- AppRoutingModule&#45;&gt;AppModule -->
<g id="edge2" class="edge">
<title>AppRoutingModule&#45;&gt;AppModule</title>
<path fill="none" stroke="black" d="M553,-85.08C553,-106.12 553,-137.8 553,-137.8 553,-137.8 369.74,-137.8 369.74,-137.8"/>
<polygon fill="black" stroke="black" points="369.74,-134.3 359.74,-137.8 369.74,-141.3 369.74,-134.3"/>
</g>
<!-- CoreModule -->
<g id="node4" class="node">
<title>CoreModule</title>
<polygon fill="#8dd3c7" stroke="black" points="470.26,-84.8 467.26,-88.8 446.26,-88.8 443.26,-84.8 383.74,-84.8 383.74,-48.8 470.26,-48.8 470.26,-84.8"/>
<text text-anchor="middle" x="427" y="-62.6" font-family="Times,serif" font-size="14.00">CoreModule</text>
</g>
<!-- CoreModule&#45;&gt;AppModule -->
<g id="edge3" class="edge">
<title>CoreModule&#45;&gt;AppModule</title>
<path fill="none" stroke="black" d="M427,-84.82C427,-102.17 427,-125.8 427,-125.8 427,-125.8 369.83,-125.8 369.83,-125.8"/>
<polygon fill="black" stroke="black" points="369.83,-122.3 359.83,-125.8 369.83,-129.3 369.83,-122.3"/>
</g>
<!-- FormsModule -->
<g id="node5" class="node">
<title>FormsModule</title>
<polygon fill="#8dd3c7" stroke="black" points="365.83,-84.8 362.83,-88.8 341.83,-88.8 338.83,-84.8 270.17,-84.8 270.17,-48.8 365.83,-48.8 365.83,-84.8"/>
<text text-anchor="middle" x="318" y="-62.6" font-family="Times,serif" font-size="14.00">FormsModule</text>
</g>
<!-- FormsModule&#45;&gt;AppModule -->
<g id="edge4" class="edge">
<title>FormsModule&#45;&gt;AppModule</title>
<path fill="none" stroke="black" d="M318,-84.91C318,-84.91 318,-103.79 318,-103.79"/>
<polygon fill="black" stroke="black" points="314.5,-103.79 318,-113.79 321.5,-103.79 314.5,-103.79"/>
</g>
<!-- SharedModule -->
<g id="node6" class="node">
<title>SharedModule</title>
<polygon fill="#8dd3c7" stroke="black" points="252.42,-84.8 249.42,-88.8 228.42,-88.8 225.42,-84.8 153.58,-84.8 153.58,-48.8 252.42,-48.8 252.42,-84.8"/>
<text text-anchor="middle" x="203" y="-62.6" font-family="Times,serif" font-size="14.00">SharedModule</text>
</g>
<!-- SharedModule&#45;&gt;AppModule -->
<g id="edge5" class="edge">
<title>SharedModule&#45;&gt;AppModule</title>
<path fill="none" stroke="black" d="M203,-84.82C203,-102.17 203,-125.8 203,-125.8 203,-125.8 266.16,-125.8 266.16,-125.8"/>
<polygon fill="black" stroke="black" points="266.16,-129.3 276.16,-125.8 266.16,-122.3 266.16,-129.3"/>
</g>
</g>
</svg>
