<?xml version="1.0" encoding="UTF-8" standalone="no"?>
<!DOCTYPE svg PUBLIC "-//W3C//DTD SVG 1.1//EN"
 "http://www.w3.org/Graphics/SVG/1.1/DTD/svg11.dtd">
<!-- Generated by graphviz version 2.47.3 (20210619.1520)
 -->
<!-- Title: dependencies Pages: 1 -->
<svg width="649pt" height="247pt"
 viewBox="0.00 0.00 649.00 246.80" xmlns="http://www.w3.org/2000/svg" xmlns:xlink="http://www.w3.org/1999/xlink">
<g id="graph0" class="graph" transform="scale(1 1) rotate(0) translate(4 242.8)">
<title>dependencies</title>
<polygon fill="white" stroke="transparent" points="-4,4 -4,-242.8 645,-242.8 645,4 -4,4"/>
<text text-anchor="middle" x="320.5" y="-8.2" font-family="sans-serif" font-size="14.00">dependencies</text>
<g id="clust1" class="cluster">
<title>cluster_AppModule</title>
<polygon fill="none" stroke="black" stroke-dasharray="1,5" points="8,-32.8 8,-230.8 633,-230.8 633,-32.8 8,-32.8"/>
</g>
<g id="clust2" class="cluster">
<title>cluster_AppModule_declarations</title>
<polygon fill="none" stroke="black" points="503,-40.8 503,-92.8 625,-92.8 625,-40.8 503,-40.8"/>
</g>
<g id="clust6" class="cluster">
<title>cluster_AppModule_bootstrap</title>
<polygon fill="none" stroke="black" points="235,-170.8 235,-222.8 359,-222.8 359,-170.8 235,-170.8"/>
</g>
<g id="clust4" class="cluster">
<title>cluster_AppModule_imports</title>
<polygon fill="none" stroke="black" points="16,-40.8 16,-92.8 495,-92.8 495,-40.8 16,-40.8"/>
</g>
<!-- AppComponent -->
<g id="node1" class="node">
<title>AppComponent</title>
<polygon fill="#ffffb3" stroke="black" points="616.94,-84.8 511.06,-84.8 511.06,-48.8 616.94,-48.8 616.94,-84.8"/>
<text text-anchor="middle" x="564" y="-62.6" font-family="Times,serif" font-size="14.00">AppComponent</text>
</g>
<!-- AppModule -->
<g id="node2" class="node">
<title>AppModule</title>
<polygon fill="#8dd3c7" stroke="black" points="338.66,-149.8 335.66,-153.8 314.66,-153.8 311.66,-149.8 255.34,-149.8 255.34,-113.8 338.66,-113.8 338.66,-149.8"/>
<text text-anchor="middle" x="297" y="-127.6" font-family="Times,serif" font-size="14.00">AppModule</text>
</g>
<!-- AppComponent&#45;&gt;AppModule -->
<g id="edge1" class="edge">
<title>AppComponent&#45;&gt;AppModule</title>
<path fill="none" stroke="black" d="M564,-85.08C564,-106.12 564,-137.8 564,-137.8 564,-137.8 348.72,-137.8 348.72,-137.8"/>
<polygon fill="black" stroke="black" points="348.72,-134.3 338.72,-137.8 348.72,-141.3 348.72,-134.3"/>
</g>
<!-- AppComponent  -->
<g id="node7" class="node">
<title>AppComponent </title>
<polygon fill="#80b1d3" stroke="black" points="351.44,-214.8 242.56,-214.8 242.56,-178.8 351.44,-178.8 351.44,-214.8"/>
<text text-anchor="middle" x="297" y="-192.6" font-family="Times,serif" font-size="14.00">AppComponent </text>
</g>
<!-- AppModule&#45;&gt;AppComponent  -->
<g id="edge6" class="edge">
<title>AppModule&#45;&gt;AppComponent </title>
<path fill="none" stroke="black" stroke-dasharray="1,5" d="M297,-149.91C297,-149.91 297,-168.79 297,-168.79"/>
<polygon fill="black" stroke="black" points="293.5,-168.79 297,-178.79 300.5,-168.79 293.5,-168.79"/>
</g>
<!-- AppRoutingModule -->
<g id="node3" class="node">
<title>AppRoutingModule</title>
<polygon fill="#8dd3c7" stroke="black" points="487.27,-84.8 484.27,-88.8 463.27,-88.8 460.27,-84.8 358.73,-84.8 358.73,-48.8 487.27,-48.8 487.27,-84.8"/>
<text text-anchor="middle" x="423" y="-62.6" font-family="Times,serif" font-size="14.00">AppRoutingModule</text>
</g>
<!-- AppRoutingModule&#45;&gt;AppModule -->
<g id="edge2" class="edge">
<title>AppRoutingModule&#45;&gt;AppModule</title>
<path fill="none" stroke="black" d="M423,-84.82C423,-102.17 423,-125.8 423,-125.8 423,-125.8 348.96,-125.8 348.96,-125.8"/>
<polygon fill="black" stroke="black" points="348.96,-122.3 338.96,-125.8 348.96,-129.3 348.96,-122.3"/>
</g>
<!-- CoreModule -->
<g id="node4" class="node">
<title>CoreModule</title>
<polygon fill="#8dd3c7" stroke="black" points="340.26,-84.8 337.26,-88.8 316.26,-88.8 313.26,-84.8 253.74,-84.8 253.74,-48.8 340.26,-48.8 340.26,-84.8"/>
<text text-anchor="middle" x="297" y="-62.6" font-family="Times,serif" font-size="14.00">CoreModule</text>
</g>
<!-- CoreModule&#45;&gt;AppModule -->
<g id="edge3" class="edge">
<title>CoreModule&#45;&gt;AppModule</title>
<path fill="none" stroke="black" d="M297,-84.91C297,-84.91 297,-103.79 297,-103.79"/>
<polygon fill="black" stroke="black" points="293.5,-103.79 297,-113.79 300.5,-103.79 293.5,-103.79"/>
</g>
<!-- FormsModule -->
<g id="node5" class="node">
<title>FormsModule</title>
<polygon fill="#8dd3c7" stroke="black" points="235.83,-84.8 232.83,-88.8 211.83,-88.8 208.83,-84.8 140.17,-84.8 140.17,-48.8 235.83,-48.8 235.83,-84.8"/>
<text text-anchor="middle" x="188" y="-62.6" font-family="Times,serif" font-size="14.00">FormsModule</text>
</g>
<!-- FormsModule&#45;&gt;AppModule -->
<g id="edge4" class="edge">
<title>FormsModule&#45;&gt;AppModule</title>
<path fill="none" stroke="black" d="M188,-84.82C188,-102.17 188,-125.8 188,-125.8 188,-125.8 245.17,-125.8 245.17,-125.8"/>
<polygon fill="black" stroke="black" points="245.17,-129.3 255.17,-125.8 245.17,-122.3 245.17,-129.3"/>
</g>
<!-- SharedModule -->
<g id="node6" class="node">
<title>SharedModule</title>
<polygon fill="#8dd3c7" stroke="black" points="122.42,-84.8 119.42,-88.8 98.42,-88.8 95.42,-84.8 23.58,-84.8 23.58,-48.8 122.42,-48.8 122.42,-84.8"/>
<text text-anchor="middle" x="73" y="-62.6" font-family="Times,serif" font-size="14.00">SharedModule</text>
</g>
<!-- SharedModule&#45;&gt;AppModule -->
<g id="edge5" class="edge">
<title>SharedModule&#45;&gt;AppModule</title>
<path fill="none" stroke="black" d="M73,-85.08C73,-106.12 73,-137.8 73,-137.8 73,-137.8 245.13,-137.8 245.13,-137.8"/>
<polygon fill="black" stroke="black" points="245.13,-141.3 255.13,-137.8 245.13,-134.3 245.13,-141.3"/>
</g>
</g>
</svg>
