<?xml version="1.0" encoding="UTF-8" standalone="no"?>
<!DOCTYPE svg PUBLIC "-//W3C//DTD SVG 1.1//EN"
 "http://www.w3.org/Graphics/SVG/1.1/DTD/svg11.dtd">
<!-- Generated by graphviz version 2.47.3 (20210619.1520)
 -->
<!-- Title: dependencies Pages: 1 -->
<svg width="1564pt" height="174pt"
 viewBox="0.00 0.00 1564.00 173.80" xmlns="http://www.w3.org/2000/svg" xmlns:xlink="http://www.w3.org/1999/xlink">
<g id="graph0" class="graph" transform="scale(1 1) rotate(0) translate(4 169.8)">
<title>dependencies</title>
<polygon fill="white" stroke="transparent" points="-4,4 -4,-169.8 1560,-169.8 1560,4 -4,4"/>
<text text-anchor="middle" x="778" y="-8.2" font-family="sans-serif" font-size="14.00">dependencies</text>
<g id="clust1" class="cluster">
<title>cluster_FormsModule</title>
<polygon fill="none" stroke="black" stroke-dasharray="1,5" points="8,-32.8 8,-157.8 1548,-157.8 1548,-32.8 8,-32.8"/>
</g>
<g id="clust11" class="cluster">
<title>cluster_FormsModule_imports</title>
<polygon fill="none" stroke="black" points="1268,-40.8 1268,-92.8 1540,-92.8 1540,-40.8 1268,-40.8"/>
</g>
<g id="clust2" class="cluster">
<title>cluster_FormsModule_declarations</title>
<polygon fill="none" stroke="black" points="16,-40.8 16,-92.8 1260,-92.8 1260,-40.8 16,-40.8"/>
</g>
<!-- AutoCompleteComponent -->
<g id="node1" class="node">
<title>AutoCompleteComponent</title>
<polygon fill="#ffffb3" stroke="black" points="1251.77,-84.8 1088.23,-84.8 1088.23,-48.8 1251.77,-48.8 1251.77,-84.8"/>
<text text-anchor="middle" x="1170" y="-62.6" font-family="Times,serif" font-size="14.00">AutoCompleteComponent</text>
</g>
<!-- FormsModule -->
<g id="node9" class="node">
<title>FormsModule</title>
<polygon fill="#8dd3c7" stroke="black" points="816.83,-149.8 813.83,-153.8 792.83,-153.8 789.83,-149.8 721.17,-149.8 721.17,-113.8 816.83,-113.8 816.83,-149.8"/>
<text text-anchor="middle" x="769" y="-127.6" font-family="Times,serif" font-size="14.00">FormsModule</text>
</g>
<!-- AutoCompleteComponent&#45;&gt;FormsModule -->
<g id="edge1" class="edge">
<title>AutoCompleteComponent&#45;&gt;FormsModule</title>
<path fill="none" stroke="black" d="M1170,-85.07C1170,-103.36 1170,-128.8 1170,-128.8 1170,-128.8 826.97,-128.8 826.97,-128.8"/>
<polygon fill="black" stroke="black" points="826.97,-125.3 816.97,-128.8 826.97,-132.3 826.97,-125.3"/>
</g>
<!-- CheckboxComponent -->
<g id="node2" class="node">
<title>CheckboxComponent</title>
<polygon fill="#ffffb3" stroke="black" points="1070.1,-84.8 931.9,-84.8 931.9,-48.8 1070.1,-48.8 1070.1,-84.8"/>
<text text-anchor="middle" x="1001" y="-62.6" font-family="Times,serif" font-size="14.00">CheckboxComponent</text>
</g>
<!-- CheckboxComponent&#45;&gt;FormsModule -->
<g id="edge2" class="edge">
<title>CheckboxComponent&#45;&gt;FormsModule</title>
<path fill="none" stroke="black" d="M1001,-84.81C1001,-100.85 1001,-121.8 1001,-121.8 1001,-121.8 826.79,-121.8 826.79,-121.8"/>
<polygon fill="black" stroke="black" points="826.79,-118.3 816.79,-121.8 826.79,-125.3 826.79,-118.3"/>
</g>
<!-- DatepickerComponent -->
<g id="node3" class="node">
<title>DatepickerComponent</title>
<polygon fill="#ffffb3" stroke="black" points="914.24,-84.8 771.76,-84.8 771.76,-48.8 914.24,-48.8 914.24,-84.8"/>
<text text-anchor="middle" x="843" y="-62.6" font-family="Times,serif" font-size="14.00">DatepickerComponent</text>
</g>
<!-- DatepickerComponent&#45;&gt;FormsModule -->
<g id="edge3" class="edge">
<title>DatepickerComponent&#45;&gt;FormsModule</title>
<path fill="none" stroke="black" d="M794.15,-84.91C794.15,-84.91 794.15,-103.79 794.15,-103.79"/>
<polygon fill="black" stroke="black" points="790.65,-103.79 794.15,-113.79 797.65,-103.79 790.65,-103.79"/>
</g>
<!-- InputsComponent -->
<g id="node4" class="node">
<title>InputsComponent</title>
<polygon fill="#ffffb3" stroke="black" points="753.33,-84.8 636.67,-84.8 636.67,-48.8 753.33,-48.8 753.33,-84.8"/>
<text text-anchor="middle" x="695" y="-62.6" font-family="Times,serif" font-size="14.00">InputsComponent</text>
</g>
<!-- InputsComponent&#45;&gt;FormsModule -->
<g id="edge4" class="edge">
<title>InputsComponent&#45;&gt;FormsModule</title>
<path fill="none" stroke="black" d="M737.25,-84.91C737.25,-84.91 737.25,-103.79 737.25,-103.79"/>
<polygon fill="black" stroke="black" points="733.75,-103.79 737.25,-113.79 740.75,-103.79 733.75,-103.79"/>
</g>
<!-- OtherComponent -->
<g id="node5" class="node">
<title>OtherComponent</title>
<polygon fill="#ffffb3" stroke="black" points="618.7,-84.8 505.3,-84.8 505.3,-48.8 618.7,-48.8 618.7,-84.8"/>
<text text-anchor="middle" x="562" y="-62.6" font-family="Times,serif" font-size="14.00">OtherComponent</text>
</g>
<!-- OtherComponent&#45;&gt;FormsModule -->
<g id="edge5" class="edge">
<title>OtherComponent&#45;&gt;FormsModule</title>
<path fill="none" stroke="black" d="M562,-84.81C562,-100.85 562,-121.8 562,-121.8 562,-121.8 711.25,-121.8 711.25,-121.8"/>
<polygon fill="black" stroke="black" points="711.25,-125.3 721.25,-121.8 711.25,-118.3 711.25,-125.3"/>
</g>
<!-- SelectedValueComponent -->
<g id="node6" class="node">
<title>SelectedValueComponent</title>
<polygon fill="#ffffb3" stroke="black" points="487.18,-84.8 324.82,-84.8 324.82,-48.8 487.18,-48.8 487.18,-84.8"/>
<text text-anchor="middle" x="406" y="-62.6" font-family="Times,serif" font-size="14.00">SelectedValueComponent</text>
</g>
<!-- SelectedValueComponent&#45;&gt;FormsModule -->
<g id="edge6" class="edge">
<title>SelectedValueComponent&#45;&gt;FormsModule</title>
<path fill="none" stroke="black" d="M406,-85.07C406,-103.36 406,-128.8 406,-128.8 406,-128.8 711.17,-128.8 711.17,-128.8"/>
<polygon fill="black" stroke="black" points="711.17,-132.3 721.17,-128.8 711.17,-125.3 711.17,-132.3"/>
</g>
<!-- SliderComponent -->
<g id="node7" class="node">
<title>SliderComponent</title>
<polygon fill="#ffffb3" stroke="black" points="307.27,-84.8 192.73,-84.8 192.73,-48.8 307.27,-48.8 307.27,-84.8"/>
<text text-anchor="middle" x="250" y="-62.6" font-family="Times,serif" font-size="14.00">SliderComponent</text>
</g>
<!-- SliderComponent&#45;&gt;FormsModule -->
<g id="edge7" class="edge">
<title>SliderComponent&#45;&gt;FormsModule</title>
<path fill="none" stroke="black" d="M250,-84.93C250,-105.37 250,-135.8 250,-135.8 250,-135.8 711.1,-135.8 711.1,-135.8"/>
<polygon fill="black" stroke="black" points="711.1,-139.3 721.1,-135.8 711.1,-132.3 711.1,-139.3"/>
</g>
<!-- StatesGroupComponent -->
<g id="node8" class="node">
<title>StatesGroupComponent</title>
<polygon fill="#ffffb3" stroke="black" points="174.04,-84.8 23.96,-84.8 23.96,-48.8 174.04,-48.8 174.04,-84.8"/>
<text text-anchor="middle" x="99" y="-62.6" font-family="Times,serif" font-size="14.00">StatesGroupComponent</text>
</g>
<!-- StatesGroupComponent&#45;&gt;FormsModule -->
<g id="edge8" class="edge">
<title>StatesGroupComponent&#45;&gt;FormsModule</title>
<path fill="none" stroke="black" d="M99,-84.81C99,-107.29 99,-142.8 99,-142.8 99,-142.8 711.08,-142.8 711.08,-142.8"/>
<polygon fill="black" stroke="black" points="711.08,-146.3 721.08,-142.8 711.08,-139.3 711.08,-146.3"/>
</g>
<!-- FormsRoutingModule -->
<g id="node10" class="node">
<title>FormsRoutingModule</title>
<polygon fill="#8dd3c7" stroke="black" points="1532.45,-84.8 1529.45,-88.8 1508.45,-88.8 1505.45,-84.8 1391.55,-84.8 1391.55,-48.8 1532.45,-48.8 1532.45,-84.8"/>
<text text-anchor="middle" x="1462" y="-62.6" font-family="Times,serif" font-size="14.00">FormsRoutingModule</text>
</g>
<!-- FormsRoutingModule&#45;&gt;FormsModule -->
<g id="edge9" class="edge">
<title>FormsRoutingModule&#45;&gt;FormsModule</title>
<path fill="none" stroke="black" d="M1462,-84.81C1462,-107.29 1462,-142.8 1462,-142.8 1462,-142.8 826.91,-142.8 826.91,-142.8"/>
<polygon fill="black" stroke="black" points="826.91,-139.3 816.91,-142.8 826.91,-146.3 826.91,-139.3"/>
</g>
<!-- SharedModule -->
<g id="node11" class="node">
<title>SharedModule</title>
<polygon fill="#8dd3c7" stroke="black" points="1374.42,-84.8 1371.42,-88.8 1350.42,-88.8 1347.42,-84.8 1275.58,-84.8 1275.58,-48.8 1374.42,-48.8 1374.42,-84.8"/>
<text text-anchor="middle" x="1325" y="-62.6" font-family="Times,serif" font-size="14.00">SharedModule</text>
</g>
<!-- SharedModule&#45;&gt;FormsModule -->
<g id="edge10" class="edge">
<title>SharedModule&#45;&gt;FormsModule</title>
<path fill="none" stroke="black" d="M1325,-84.93C1325,-105.37 1325,-135.8 1325,-135.8 1325,-135.8 826.89,-135.8 826.89,-135.8"/>
<polygon fill="black" stroke="black" points="826.89,-132.3 816.89,-135.8 826.89,-139.3 826.89,-132.3"/>
</g>
</g>
</svg>
