<?xml version="1.0" encoding="UTF-8" standalone="no"?>
<!DOCTYPE svg PUBLIC "-//W3C//DTD SVG 1.1//EN"
 "http://www.w3.org/Graphics/SVG/1.1/DTD/svg11.dtd">
<!-- Generated by graphviz version 2.47.3 (20210619.1520)
 -->
<!-- Title: dependencies Pages: 1 -->
<svg width="5415pt" height="323pt"
 viewBox="0.00 0.00 5415.00 322.80" xmlns="http://www.w3.org/2000/svg" xmlns:xlink="http://www.w3.org/1999/xlink">
<g id="graph0" class="graph" transform="scale(1 1) rotate(0) translate(4 318.8)">
<title>dependencies</title>
<polygon fill="white" stroke="transparent" points="-4,4 -4,-318.8 5411,-318.8 5411,4 -4,4"/>
<text text-anchor="middle" x="2703.5" y="-8.2" font-family="sans-serif" font-size="14.00">dependencies</text>
<g id="clust1" class="cluster">
<title>cluster_AddCandidateModule</title>
<polygon fill="none" stroke="black" stroke-dasharray="1,5" points="8,-32.8 8,-168.8 528,-168.8 528,-32.8 8,-32.8"/>
</g>
<g id="clust2" class="cluster">
<title>cluster_AddCandidateModule_declarations</title>
<polygon fill="none" stroke="black" points="16,-40.8 16,-92.8 194,-92.8 194,-40.8 16,-40.8"/>
</g>
<g id="clust4" class="cluster">
<title>cluster_AddCandidateModule_imports</title>
<polygon fill="none" stroke="black" points="202,-40.8 202,-92.8 520,-92.8 520,-40.8 202,-40.8"/>
</g>
<g id="clust14" class="cluster">
<title>cluster_AdminModule</title>
<polygon fill="none" stroke="black" stroke-dasharray="1,5" points="2491,-32.8 2491,-168.8 3104,-168.8 3104,-32.8 2491,-32.8"/>
</g>
<g id="clust15" class="cluster">
<title>cluster_AdminModule_declarations</title>
<polygon fill="none" stroke="black" points="2667,-40.8 2667,-92.8 3096,-92.8 3096,-40.8 2667,-40.8"/>
</g>
<g id="clust19" class="cluster">
<title>cluster_AdminModule_imports</title>
<polygon fill="none" stroke="black" points="2499,-40.8 2499,-92.8 2659,-92.8 2659,-40.8 2499,-40.8"/>
</g>
<g id="clust29" class="cluster">
<title>cluster_AppModule</title>
<polygon fill="none" stroke="black" stroke-dasharray="1,5" points="1328,-108.8 1328,-306.8 1837,-306.8 1837,-108.8 1328,-108.8"/>
</g>
<g id="clust30" class="cluster">
<title>cluster_AppModule_declarations</title>
<polygon fill="none" stroke="black" points="1336,-116.8 1336,-168.8 1458,-168.8 1458,-116.8 1336,-116.8"/>
</g>
<g id="clust32" class="cluster">
<title>cluster_AppModule_imports</title>
<polygon fill="none" stroke="black" points="1466,-116.8 1466,-168.8 1829,-168.8 1829,-116.8 1466,-116.8"/>
</g>
<g id="clust34" class="cluster">
<title>cluster_AppModule_bootstrap</title>
<polygon fill="none" stroke="black" points="1476,-246.8 1476,-298.8 1600,-298.8 1600,-246.8 1476,-246.8"/>
</g>
<g id="clust42" class="cluster">
<title>cluster_ChartsModule</title>
<polygon fill="none" stroke="black" stroke-dasharray="1,5" points="3112,-32.8 3112,-168.8 4603,-168.8 4603,-32.8 3112,-32.8"/>
</g>
<g id="clust43" class="cluster">
<title>cluster_ChartsModule_declarations</title>
<polygon fill="none" stroke="black" points="3380,-40.8 3380,-92.8 4455,-92.8 4455,-40.8 3380,-40.8"/>
</g>
<g id="clust51" class="cluster">
<title>cluster_ChartsModule_imports</title>
<polygon fill="none" stroke="black" points="3120,-40.8 3120,-92.8 3372,-92.8 3372,-40.8 3120,-40.8"/>
</g>
<g id="clust54" class="cluster">
<title>cluster_ChartsModule_providers</title>
<polygon fill="none" stroke="black" points="4463,-40.8 4463,-92.8 4595,-92.8 4595,-40.8 4463,-40.8"/>
</g>
<g id="clust67" class="cluster">
<title>cluster_DashboardModule</title>
<polygon fill="none" stroke="black" stroke-dasharray="1,5" points="5073,-32.8 5073,-168.8 5399,-168.8 5399,-32.8 5073,-32.8"/>
</g>
<g id="clust68" class="cluster">
<title>cluster_DashboardModule_declarations</title>
<polygon fill="none" stroke="black" points="5271,-40.8 5271,-92.8 5391,-92.8 5391,-40.8 5271,-40.8"/>
</g>
<g id="clust70" class="cluster">
<title>cluster_DashboardModule_imports</title>
<polygon fill="none" stroke="black" points="5081,-40.8 5081,-92.8 5263,-92.8 5263,-40.8 5081,-40.8"/>
</g>
<g id="clust80" class="cluster">
<title>cluster_FormsModule</title>
<polygon fill="none" stroke="black" stroke-dasharray="1,5" points="1029,-32.8 1029,-100.8 2453,-100.8 2453,-32.8 1029,-32.8"/>
</g>
<g id="clust81" class="cluster">
<title>cluster_FormsModule_declarations</title>
<polygon fill="none" stroke="black" points="1201,-40.8 1201,-92.8 2445,-92.8 2445,-40.8 1201,-40.8"/>
</g>
<g id="clust90" class="cluster">
<title>cluster_FormsModule_imports</title>
<polygon fill="none" stroke="black" points="1037,-40.8 1037,-92.8 1193,-92.8 1193,-40.8 1037,-40.8"/>
</g>
<g id="clust100" class="cluster">
<title>cluster_LoginModule</title>
<polygon fill="none" stroke="black" stroke-dasharray="1,5" points="1845,-108.8 1845,-233.8 2153,-233.8 2153,-108.8 1845,-108.8"/>
</g>
<g id="clust101" class="cluster">
<title>cluster_LoginModule_declarations</title>
<polygon fill="none" stroke="black" points="2015,-116.8 2015,-168.8 2145,-168.8 2145,-116.8 2015,-116.8"/>
</g>
<g id="clust103" class="cluster">
<title>cluster_LoginModule_imports</title>
<polygon fill="none" stroke="black" points="1853,-116.8 1853,-168.8 2007,-168.8 2007,-116.8 1853,-116.8"/>
</g>
<g id="clust113" class="cluster">
<title>cluster_SharedModule</title>
<polygon fill="none" stroke="black" stroke-dasharray="1,5" points="536,-108.8 536,-176.8 1320,-176.8 1320,-108.8 536,-108.8"/>
</g>
<g id="clust114" class="cluster">
<title>cluster_SharedModule_declarations</title>
<polygon fill="none" stroke="black" points="937,-116.8 937,-168.8 1312,-168.8 1312,-116.8 937,-116.8"/>
</g>
<g id="clust119" class="cluster">
<title>cluster_SharedModule_exports</title>
<polygon fill="none" stroke="black" points="544,-116.8 544,-168.8 929,-168.8 929,-116.8 544,-116.8"/>
</g>
<g id="clust122" class="cluster">
<title>cluster_SignupModule</title>
<polygon fill="none" stroke="black" stroke-dasharray="1,5" points="2161,-108.8 2161,-233.8 2483,-233.8 2483,-108.8 2161,-108.8"/>
</g>
<g id="clust123" class="cluster">
<title>cluster_SignupModule_declarations</title>
<polygon fill="none" stroke="black" points="2337,-116.8 2337,-168.8 2475,-168.8 2475,-116.8 2337,-116.8"/>
</g>
<g id="clust125" class="cluster">
<title>cluster_SignupModule_imports</title>
<polygon fill="none" stroke="black" points="2169,-116.8 2169,-168.8 2329,-168.8 2329,-116.8 2169,-116.8"/>
</g>
<g id="clust135" class="cluster">
<title>cluster_TablesModule</title>
<polygon fill="none" stroke="black" stroke-dasharray="1,5" points="4611,-32.8 4611,-168.8 5065,-168.8 5065,-32.8 4611,-32.8"/>
</g>
<g id="clust136" class="cluster">
<title>cluster_TablesModule_declarations</title>
<polygon fill="none" stroke="black" points="4785,-40.8 4785,-92.8 5057,-92.8 5057,-40.8 4785,-40.8"/>
</g>
<g id="clust139" class="cluster">
<title>cluster_TablesModule_imports</title>
<polygon fill="none" stroke="black" points="4619,-40.8 4619,-92.8 4777,-92.8 4777,-40.8 4619,-40.8"/>
</g>
<!-- AddCandidateComponent -->
<g id="node1" class="node">
<title>AddCandidateComponent</title>
<polygon fill="#ffffb3" stroke="black" points="186.2,-84.8 23.8,-84.8 23.8,-48.8 186.2,-48.8 186.2,-84.8"/>
<text text-anchor="middle" x="105" y="-62.6" font-family="Times,serif" font-size="14.00">AddCandidateComponent</text>
</g>
<!-- AddCandidateModule -->
<g id="node2" class="node">
<title>AddCandidateModule</title>
<polygon fill="#8dd3c7" stroke="black" points="373.42,-160.8 370.42,-164.8 349.42,-164.8 346.42,-160.8 232.58,-160.8 232.58,-124.8 373.42,-124.8 373.42,-160.8"/>
<text text-anchor="middle" x="303" y="-138.6" font-family="Times,serif" font-size="14.00">AddCandidateModule</text>
</g>
<!-- AddCandidateComponent&#45;&gt;AddCandidateModule -->
<g id="edge1" class="edge">
<title>AddCandidateComponent&#45;&gt;AddCandidateModule</title>
<path fill="none" stroke="black" d="M105,-84.81C105,-107.29 105,-142.8 105,-142.8 105,-142.8 222.64,-142.8 222.64,-142.8"/>
<polygon fill="black" stroke="black" points="222.64,-146.3 232.64,-142.8 222.64,-139.3 222.64,-146.3"/>
</g>
<!-- AddCandidateRoutingModule -->
<g id="node3" class="node">
<title>AddCandidateRoutingModule</title>
<polygon fill="#8dd3c7" stroke="black" points="395.54,-84.8 392.54,-88.8 371.54,-88.8 368.54,-84.8 210.46,-84.8 210.46,-48.8 395.54,-48.8 395.54,-84.8"/>
<text text-anchor="middle" x="303" y="-62.6" font-family="Times,serif" font-size="14.00">AddCandidateRoutingModule</text>
</g>
<!-- AddCandidateRoutingModule&#45;&gt;AddCandidateModule -->
<g id="edge2" class="edge">
<title>AddCandidateRoutingModule&#45;&gt;AddCandidateModule</title>
<path fill="none" stroke="black" d="M303,-84.81C303,-84.81 303,-114.65 303,-114.65"/>
<polygon fill="black" stroke="black" points="299.5,-114.65 303,-124.65 306.5,-114.65 299.5,-114.65"/>
</g>
<!-- SharedModule -->
<g id="node4" class="node">
<title>SharedModule</title>
<polygon fill="#8dd3c7" stroke="black" points="512.42,-84.8 509.42,-88.8 488.42,-88.8 485.42,-84.8 413.58,-84.8 413.58,-48.8 512.42,-48.8 512.42,-84.8"/>
<text text-anchor="middle" x="463" y="-62.6" font-family="Times,serif" font-size="14.00">SharedModule</text>
</g>
<!-- SharedModule&#45;&gt;AddCandidateModule -->
<g id="edge3" class="edge">
<title>SharedModule&#45;&gt;AddCandidateModule</title>
<path fill="none" stroke="black" d="M479.4,-84.81C479.4,-107.29 479.4,-142.8 479.4,-142.8 479.4,-142.8 383.23,-142.8 383.23,-142.8"/>
<polygon fill="black" stroke="black" points="383.23,-139.3 373.23,-142.8 383.23,-146.3 383.23,-139.3"/>
</g>
<!-- AppModule -->
<g id="node11" class="node">
<title>AppModule</title>
<polygon fill="#8dd3c7" stroke="black" points="1579.66,-225.8 1576.66,-229.8 1555.66,-229.8 1552.66,-225.8 1496.34,-225.8 1496.34,-189.8 1579.66,-189.8 1579.66,-225.8"/>
<text text-anchor="middle" x="1538" y="-203.6" font-family="Times,serif" font-size="14.00">AppModule</text>
</g>
<!-- SharedModule&#45;&gt;AppModule -->
<g id="edge12" class="edge">
<title>SharedModule&#45;&gt;AppModule</title>
<path fill="none" stroke="black" d="M495.81,-84.83C495.81,-124.08 495.81,-213.8 495.81,-213.8 495.81,-213.8 1486.18,-213.8 1486.18,-213.8"/>
<polygon fill="black" stroke="black" points="1486.18,-217.3 1496.18,-213.8 1486.18,-210.3 1486.18,-217.3"/>
</g>
<!-- CoreModule -->
<g id="node13" class="node">
<title>CoreModule</title>
<polygon fill="#8dd3c7" stroke="black" points="1707.26,-160.8 1704.26,-164.8 1683.26,-164.8 1680.26,-160.8 1620.74,-160.8 1620.74,-124.8 1707.26,-124.8 1707.26,-160.8"/>
<text text-anchor="middle" x="1664" y="-138.6" font-family="Times,serif" font-size="14.00">CoreModule</text>
</g>
<!-- SharedModule&#45;&gt;CoreModule -->
<g id="edge24" class="edge">
<title>SharedModule&#45;&gt;CoreModule</title>
<path fill="none" stroke="black" d="M430.19,-84.91C430.19,-94.7 430.19,-104.8 430.19,-104.8 430.19,-104.8 1658.94,-104.8 1658.94,-104.8 1658.94,-104.8 1658.94,-114.69 1658.94,-114.69"/>
<polygon fill="black" stroke="black" points="1655.44,-114.69 1658.94,-124.69 1662.44,-114.69 1655.44,-114.69"/>
</g>
<!-- FormsModule -->
<g id="node14" class="node">
<title>FormsModule</title>
<polygon fill="#8dd3c7" stroke="black" points="1820.83,-160.8 1817.83,-164.8 1796.83,-164.8 1793.83,-160.8 1725.17,-160.8 1725.17,-124.8 1820.83,-124.8 1820.83,-160.8"/>
<text text-anchor="middle" x="1773" y="-138.6" font-family="Times,serif" font-size="14.00">FormsModule</text>
</g>
<!-- SharedModule&#45;&gt;FormsModule -->
<g id="edge36" class="edge">
<title>SharedModule&#45;&gt;FormsModule</title>
<path fill="none" stroke="black" d="M446.6,-84.99C446.6,-93.08 446.6,-100.8 446.6,-100.8 446.6,-100.8 1735.93,-100.8 1735.93,-100.8 1735.93,-100.8 1735.93,-114.74 1735.93,-114.74"/>
<polygon fill="black" stroke="black" points="1732.43,-114.74 1735.93,-124.74 1739.43,-114.74 1732.43,-114.74"/>
</g>
<!-- PageNotFoundComponent  -->
<g id="node45" class="node">
<title>PageNotFoundComponent </title>
<polygon fill="#fb8072" stroke="black" points="818.32,-160.8 649.68,-160.8 649.68,-124.8 818.32,-124.8 818.32,-160.8"/>
<text text-anchor="middle" x="734" y="-138.6" font-family="Times,serif" font-size="14.00">PageNotFoundComponent </text>
</g>
<!-- SharedModule&#45;&gt;PageNotFoundComponent  -->
<g id="edge43" class="edge">
<title>SharedModule&#45;&gt;PageNotFoundComponent </title>
<path fill="none" stroke="black" stroke-dasharray="5,2" d="M512.39,-72.8C590.56,-72.8 734,-72.8 734,-72.8 734,-72.8 734,-114.77 734,-114.77"/>
<polygon fill="black" stroke="black" points="730.5,-114.77 734,-124.77 737.5,-114.77 730.5,-114.77"/>
</g>
<!-- RouterTab  -->
<g id="node46" class="node">
<title>RouterTab </title>
<polygon fill="#fb8072" stroke="black" points="631.87,-160.8 552.13,-160.8 552.13,-124.8 631.87,-124.8 631.87,-160.8"/>
<text text-anchor="middle" x="592" y="-138.6" font-family="Times,serif" font-size="14.00">RouterTab </text>
</g>
<!-- SharedModule&#45;&gt;RouterTab  -->
<g id="edge44" class="edge">
<title>SharedModule&#45;&gt;RouterTab </title>
<path fill="none" stroke="black" stroke-dasharray="5,2" d="M512.51,-78.8C548.88,-78.8 592,-78.8 592,-78.8 592,-78.8 592,-114.63 592,-114.63"/>
<polygon fill="black" stroke="black" points="588.5,-114.63 592,-124.63 595.5,-114.63 588.5,-114.63"/>
</g>
<!-- RouterTabs  -->
<g id="node47" class="node">
<title>RouterTabs </title>
<polygon fill="#fb8072" stroke="black" points="921.31,-160.8 836.69,-160.8 836.69,-124.8 921.31,-124.8 921.31,-160.8"/>
<text text-anchor="middle" x="879" y="-138.6" font-family="Times,serif" font-size="14.00">RouterTabs </text>
</g>
<!-- SharedModule&#45;&gt;RouterTabs  -->
<g id="edge45" class="edge">
<title>SharedModule&#45;&gt;RouterTabs </title>
<path fill="none" stroke="black" stroke-dasharray="5,2" d="M512.35,-66.8C622.55,-66.8 879,-66.8 879,-66.8 879,-66.8 879,-114.79 879,-114.79"/>
<polygon fill="black" stroke="black" points="875.5,-114.79 879,-124.79 882.5,-114.79 875.5,-114.79"/>
</g>
<!-- LayoutComponent -->
<g id="node5" class="node">
<title>LayoutComponent</title>
<polygon fill="#ffffb3" stroke="black" points="2795.49,-84.8 2674.51,-84.8 2674.51,-48.8 2795.49,-48.8 2795.49,-84.8"/>
<text text-anchor="middle" x="2735" y="-62.6" font-family="Times,serif" font-size="14.00">LayoutComponent</text>
</g>
<!-- AdminModule -->
<g id="node8" class="node">
<title>AdminModule</title>
<polygon fill="#8dd3c7" stroke="black" points="2855.44,-160.8 2852.44,-164.8 2831.44,-164.8 2828.44,-160.8 2756.56,-160.8 2756.56,-124.8 2855.44,-124.8 2855.44,-160.8"/>
<text text-anchor="middle" x="2806" y="-138.6" font-family="Times,serif" font-size="14.00">AdminModule</text>
</g>
<!-- LayoutComponent&#45;&gt;AdminModule -->
<g id="edge4" class="edge">
<title>LayoutComponent&#45;&gt;AdminModule</title>
<path fill="none" stroke="black" d="M2776.14,-84.81C2776.14,-84.81 2776.14,-114.65 2776.14,-114.65"/>
<polygon fill="black" stroke="black" points="2772.64,-114.65 2776.14,-124.65 2779.64,-114.65 2772.64,-114.65"/>
</g>
<!-- SideNavComponent -->
<g id="node6" class="node">
<title>SideNavComponent</title>
<polygon fill="#ffffb3" stroke="black" points="3087.54,-84.8 2958.46,-84.8 2958.46,-48.8 3087.54,-48.8 3087.54,-84.8"/>
<text text-anchor="middle" x="3023" y="-62.6" font-family="Times,serif" font-size="14.00">SideNavComponent</text>
</g>
<!-- SideNavComponent&#45;&gt;AdminModule -->
<g id="edge5" class="edge">
<title>SideNavComponent&#45;&gt;AdminModule</title>
<path fill="none" stroke="black" d="M3023,-85.03C3023,-110.81 3023,-154.8 3023,-154.8 3023,-154.8 2865.24,-154.8 2865.24,-154.8"/>
<polygon fill="black" stroke="black" points="2865.24,-151.3 2855.24,-154.8 2865.24,-158.3 2865.24,-151.3"/>
</g>
<!-- TopNavComponent -->
<g id="node7" class="node">
<title>TopNavComponent</title>
<polygon fill="#ffffb3" stroke="black" points="2940.71,-84.8 2813.29,-84.8 2813.29,-48.8 2940.71,-48.8 2940.71,-84.8"/>
<text text-anchor="middle" x="2877" y="-62.6" font-family="Times,serif" font-size="14.00">TopNavComponent</text>
</g>
<!-- TopNavComponent&#45;&gt;AdminModule -->
<g id="edge6" class="edge">
<title>TopNavComponent&#45;&gt;AdminModule</title>
<path fill="none" stroke="black" d="M2834.31,-84.81C2834.31,-84.81 2834.31,-114.65 2834.31,-114.65"/>
<polygon fill="black" stroke="black" points="2830.81,-114.65 2834.31,-124.65 2837.81,-114.65 2830.81,-114.65"/>
</g>
<!-- AdminRoutingModule -->
<g id="node9" class="node">
<title>AdminRoutingModule</title>
<polygon fill="#8dd3c7" stroke="black" points="2650.56,-84.8 2647.56,-88.8 2626.56,-88.8 2623.56,-84.8 2507.44,-84.8 2507.44,-48.8 2650.56,-48.8 2650.56,-84.8"/>
<text text-anchor="middle" x="2579" y="-62.6" font-family="Times,serif" font-size="14.00">AdminRoutingModule</text>
</g>
<!-- AdminRoutingModule&#45;&gt;AdminModule -->
<g id="edge7" class="edge">
<title>AdminRoutingModule&#45;&gt;AdminModule</title>
<path fill="none" stroke="black" d="M2579,-84.81C2579,-107.29 2579,-142.8 2579,-142.8 2579,-142.8 2746.74,-142.8 2746.74,-142.8"/>
<polygon fill="black" stroke="black" points="2746.74,-146.3 2756.74,-142.8 2746.74,-139.3 2746.74,-146.3"/>
</g>
<!-- AppComponent -->
<g id="node10" class="node">
<title>AppComponent</title>
<polygon fill="#ffffb3" stroke="black" points="1449.94,-160.8 1344.06,-160.8 1344.06,-124.8 1449.94,-124.8 1449.94,-160.8"/>
<text text-anchor="middle" x="1397" y="-138.6" font-family="Times,serif" font-size="14.00">AppComponent</text>
</g>
<!-- AppComponent&#45;&gt;AppModule -->
<g id="edge8" class="edge">
<title>AppComponent&#45;&gt;AppModule</title>
<path fill="none" stroke="black" d="M1397,-160.82C1397,-178.17 1397,-201.8 1397,-201.8 1397,-201.8 1486.08,-201.8 1486.08,-201.8"/>
<polygon fill="black" stroke="black" points="1486.08,-205.3 1496.08,-201.8 1486.08,-198.3 1486.08,-205.3"/>
</g>
<!-- AppComponent  -->
<g id="node15" class="node">
<title>AppComponent </title>
<polygon fill="#80b1d3" stroke="black" points="1592.44,-290.8 1483.56,-290.8 1483.56,-254.8 1592.44,-254.8 1592.44,-290.8"/>
<text text-anchor="middle" x="1538" y="-268.6" font-family="Times,serif" font-size="14.00">AppComponent </text>
</g>
<!-- AppModule&#45;&gt;AppComponent  -->
<g id="edge13" class="edge">
<title>AppModule&#45;&gt;AppComponent </title>
<path fill="none" stroke="black" stroke-dasharray="1,5" d="M1538,-225.91C1538,-225.91 1538,-244.79 1538,-244.79"/>
<polygon fill="black" stroke="black" points="1534.5,-244.79 1538,-254.79 1541.5,-244.79 1534.5,-244.79"/>
</g>
<!-- AppRoutingModule -->
<g id="node12" class="node">
<title>AppRoutingModule</title>
<polygon fill="#8dd3c7" stroke="black" points="1602.27,-160.8 1599.27,-164.8 1578.27,-164.8 1575.27,-160.8 1473.73,-160.8 1473.73,-124.8 1602.27,-124.8 1602.27,-160.8"/>
<text text-anchor="middle" x="1538" y="-138.6" font-family="Times,serif" font-size="14.00">AppRoutingModule</text>
</g>
<!-- AppRoutingModule&#45;&gt;AppModule -->
<g id="edge9" class="edge">
<title>AppRoutingModule&#45;&gt;AppModule</title>
<path fill="none" stroke="black" d="M1538,-160.91C1538,-160.91 1538,-179.79 1538,-179.79"/>
<polygon fill="black" stroke="black" points="1534.5,-179.79 1538,-189.79 1541.5,-179.79 1534.5,-179.79"/>
</g>
<!-- CoreModule&#45;&gt;AppModule -->
<g id="edge10" class="edge">
<title>CoreModule&#45;&gt;AppModule</title>
<path fill="none" stroke="black" d="M1664,-160.91C1664,-180.14 1664,-207.8 1664,-207.8 1664,-207.8 1589.96,-207.8 1589.96,-207.8"/>
<polygon fill="black" stroke="black" points="1589.96,-204.3 1579.96,-207.8 1589.96,-211.3 1589.96,-204.3"/>
</g>
<!-- FormsModule&#45;&gt;AppModule -->
<g id="edge11" class="edge">
<title>FormsModule&#45;&gt;AppModule</title>
<path fill="none" stroke="black" d="M1773,-161.09C1773,-183.01 1773,-216.8 1773,-216.8 1773,-216.8 1589.74,-216.8 1589.74,-216.8"/>
<polygon fill="black" stroke="black" points="1589.74,-213.3 1579.74,-216.8 1589.74,-220.3 1589.74,-213.3"/>
</g>
<!-- LoginModule -->
<g id="node40" class="node">
<title>LoginModule</title>
<polygon fill="#8dd3c7" stroke="black" points="1976.49,-225.8 1973.49,-229.8 1952.49,-229.8 1949.49,-225.8 1883.51,-225.8 1883.51,-189.8 1976.49,-189.8 1976.49,-225.8"/>
<text text-anchor="middle" x="1930" y="-203.6" font-family="Times,serif" font-size="14.00">LoginModule</text>
</g>
<!-- FormsModule&#45;&gt;LoginModule -->
<g id="edge38" class="edge">
<title>FormsModule&#45;&gt;LoginModule</title>
<path fill="none" stroke="black" d="M1796.83,-160.83C1796.83,-177.2 1796.83,-198.8 1796.83,-198.8 1796.83,-198.8 1873.42,-198.8 1873.42,-198.8"/>
<polygon fill="black" stroke="black" points="1873.42,-202.3 1883.42,-198.8 1873.42,-195.3 1873.42,-202.3"/>
</g>
<!-- SignupModule -->
<g id="node49" class="node">
<title>SignupModule</title>
<polygon fill="#8dd3c7" stroke="black" points="2298.72,-225.8 2295.72,-229.8 2274.72,-229.8 2271.72,-225.8 2199.28,-225.8 2199.28,-189.8 2298.72,-189.8 2298.72,-225.8"/>
<text text-anchor="middle" x="2249" y="-203.6" font-family="Times,serif" font-size="14.00">SignupModule</text>
</g>
<!-- FormsModule&#45;&gt;SignupModule -->
<g id="edge47" class="edge">
<title>FormsModule&#45;&gt;SignupModule</title>
<path fill="none" stroke="black" d="M1749.17,-160.84C1749.17,-168.55 1749.17,-175.8 1749.17,-175.8 1749.17,-175.8 2232.46,-175.8 2232.46,-175.8 2232.46,-175.8 2232.46,-179.56 2232.46,-179.56"/>
<polygon fill="black" stroke="black" points="2228.96,-179.56 2232.46,-189.56 2235.96,-179.56 2228.96,-179.56"/>
</g>
<!-- BarChartComponent -->
<g id="node16" class="node">
<title>BarChartComponent</title>
<polygon fill="#ffffb3" stroke="black" points="3520.15,-84.8 3387.85,-84.8 3387.85,-48.8 3520.15,-48.8 3520.15,-84.8"/>
<text text-anchor="middle" x="3454" y="-62.6" font-family="Times,serif" font-size="14.00">BarChartComponent</text>
</g>
<!-- ChartsModule -->
<g id="node23" class="node">
<title>ChartsModule</title>
<polygon fill="#8dd3c7" stroke="black" points="3898.1,-160.8 3895.1,-164.8 3874.1,-164.8 3871.1,-160.8 3801.9,-160.8 3801.9,-124.8 3898.1,-124.8 3898.1,-160.8"/>
<text text-anchor="middle" x="3850" y="-138.6" font-family="Times,serif" font-size="14.00">ChartsModule</text>
</g>
<!-- BarChartComponent&#45;&gt;ChartsModule -->
<g id="edge14" class="edge">
<title>BarChartComponent&#45;&gt;ChartsModule</title>
<path fill="none" stroke="black" d="M3454,-84.83C3454,-105.57 3454,-136.8 3454,-136.8 3454,-136.8 3791.84,-136.8 3791.84,-136.8"/>
<polygon fill="black" stroke="black" points="3791.84,-140.3 3801.84,-136.8 3791.84,-133.3 3791.84,-140.3"/>
</g>
<!-- DonutChartComponent -->
<g id="node17" class="node">
<title>DonutChartComponent</title>
<polygon fill="#ffffb3" stroke="black" points="4446.93,-84.8 4299.07,-84.8 4299.07,-48.8 4446.93,-48.8 4446.93,-84.8"/>
<text text-anchor="middle" x="4373" y="-62.6" font-family="Times,serif" font-size="14.00">DonutChartComponent</text>
</g>
<!-- DonutChartComponent&#45;&gt;ChartsModule -->
<g id="edge15" class="edge">
<title>DonutChartComponent&#45;&gt;ChartsModule</title>
<path fill="none" stroke="black" d="M4373,-85C4373,-109.16 4373,-148.8 4373,-148.8 4373,-148.8 3908.27,-148.8 3908.27,-148.8"/>
<polygon fill="black" stroke="black" points="3908.27,-145.3 3898.27,-148.8 3908.27,-152.3 3908.27,-145.3"/>
</g>
<!-- HomeComponent -->
<g id="node18" class="node">
<title>HomeComponent</title>
<polygon fill="#ffffb3" stroke="black" points="4281.55,-84.8 4166.45,-84.8 4166.45,-48.8 4281.55,-48.8 4281.55,-84.8"/>
<text text-anchor="middle" x="4224" y="-62.6" font-family="Times,serif" font-size="14.00">HomeComponent</text>
</g>
<!-- HomeComponent&#45;&gt;ChartsModule -->
<g id="edge16" class="edge">
<title>HomeComponent&#45;&gt;ChartsModule</title>
<path fill="none" stroke="black" d="M4224,-84.81C4224,-107.29 4224,-142.8 4224,-142.8 4224,-142.8 3908.13,-142.8 3908.13,-142.8"/>
<polygon fill="black" stroke="black" points="3908.13,-139.3 3898.13,-142.8 3908.13,-146.3 3908.13,-139.3"/>
</g>
<!-- LineChartComponent -->
<g id="node19" class="node">
<title>LineChartComponent</title>
<polygon fill="#ffffb3" stroke="black" points="4148.09,-84.8 4009.91,-84.8 4009.91,-48.8 4148.09,-48.8 4148.09,-84.8"/>
<text text-anchor="middle" x="4079" y="-62.6" font-family="Times,serif" font-size="14.00">LineChartComponent</text>
</g>
<!-- LineChartComponent&#45;&gt;ChartsModule -->
<g id="edge17" class="edge">
<title>LineChartComponent&#45;&gt;ChartsModule</title>
<path fill="none" stroke="black" d="M4079,-84.83C4079,-105.57 4079,-136.8 4079,-136.8 4079,-136.8 3908.29,-136.8 3908.29,-136.8"/>
<polygon fill="black" stroke="black" points="3908.29,-133.3 3898.29,-136.8 3908.29,-140.3 3908.29,-133.3"/>
</g>
<!-- PieChartComponent -->
<g id="node20" class="node">
<title>PieChartComponent</title>
<polygon fill="#ffffb3" stroke="black" points="3992.32,-84.8 3861.68,-84.8 3861.68,-48.8 3992.32,-48.8 3992.32,-84.8"/>
<text text-anchor="middle" x="3927" y="-62.6" font-family="Times,serif" font-size="14.00">PieChartComponent</text>
</g>
<!-- PieChartComponent&#45;&gt;ChartsModule -->
<g id="edge18" class="edge">
<title>PieChartComponent&#45;&gt;ChartsModule</title>
<path fill="none" stroke="black" d="M3879.94,-84.81C3879.94,-84.81 3879.94,-114.65 3879.94,-114.65"/>
<polygon fill="black" stroke="black" points="3876.44,-114.65 3879.94,-124.65 3883.44,-114.65 3876.44,-114.65"/>
</g>
<!-- PolarChartComponent -->
<g id="node21" class="node">
<title>PolarChartComponent</title>
<polygon fill="#ffffb3" stroke="black" points="3843.98,-84.8 3702.02,-84.8 3702.02,-48.8 3843.98,-48.8 3843.98,-84.8"/>
<text text-anchor="middle" x="3773" y="-62.6" font-family="Times,serif" font-size="14.00">PolarChartComponent</text>
</g>
<!-- PolarChartComponent&#45;&gt;ChartsModule -->
<g id="edge19" class="edge">
<title>PolarChartComponent&#45;&gt;ChartsModule</title>
<path fill="none" stroke="black" d="M3822.97,-84.81C3822.97,-84.81 3822.97,-114.65 3822.97,-114.65"/>
<polygon fill="black" stroke="black" points="3819.47,-114.65 3822.97,-124.65 3826.47,-114.65 3819.47,-114.65"/>
</g>
<!-- RadarChartComponent -->
<g id="node22" class="node">
<title>RadarChartComponent</title>
<polygon fill="#ffffb3" stroke="black" points="3683.86,-84.8 3538.14,-84.8 3538.14,-48.8 3683.86,-48.8 3683.86,-84.8"/>
<text text-anchor="middle" x="3611" y="-62.6" font-family="Times,serif" font-size="14.00">RadarChartComponent</text>
</g>
<!-- RadarChartComponent&#45;&gt;ChartsModule -->
<g id="edge20" class="edge">
<title>RadarChartComponent&#45;&gt;ChartsModule</title>
<path fill="none" stroke="black" d="M3611,-84.97C3611,-103.89 3611,-130.8 3611,-130.8 3611,-130.8 3791.92,-130.8 3791.92,-130.8"/>
<polygon fill="black" stroke="black" points="3791.92,-134.3 3801.92,-130.8 3791.92,-127.3 3791.92,-134.3"/>
</g>
<!-- ChartsRoutingModule -->
<g id="node24" class="node">
<title>ChartsRoutingModule</title>
<polygon fill="#8dd3c7" stroke="black" points="3363.71,-84.8 3360.71,-88.8 3339.71,-88.8 3336.71,-84.8 3222.29,-84.8 3222.29,-48.8 3363.71,-48.8 3363.71,-84.8"/>
<text text-anchor="middle" x="3293" y="-62.6" font-family="Times,serif" font-size="14.00">ChartsRoutingModule</text>
</g>
<!-- ChartsRoutingModule&#45;&gt;ChartsModule -->
<g id="edge21" class="edge">
<title>ChartsRoutingModule&#45;&gt;ChartsModule</title>
<path fill="none" stroke="black" d="M3293,-84.81C3293,-107.29 3293,-142.8 3293,-142.8 3293,-142.8 3791.54,-142.8 3791.54,-142.8"/>
<polygon fill="black" stroke="black" points="3791.54,-146.3 3801.54,-142.8 3791.54,-139.3 3791.54,-146.3"/>
</g>
<!-- Ng2Charts -->
<g id="node25" class="node">
<title>Ng2Charts</title>
<polygon fill="#8dd3c7" stroke="black" points="3204.15,-84.8 3201.15,-88.8 3180.15,-88.8 3177.15,-84.8 3127.85,-84.8 3127.85,-48.8 3204.15,-48.8 3204.15,-84.8"/>
<text text-anchor="middle" x="3166" y="-62.6" font-family="Times,serif" font-size="14.00">Ng2Charts</text>
</g>
<!-- Ng2Charts&#45;&gt;ChartsModule -->
<g id="edge22" class="edge">
<title>Ng2Charts&#45;&gt;ChartsModule</title>
<path fill="none" stroke="black" d="M3166,-85C3166,-109.16 3166,-148.8 3166,-148.8 3166,-148.8 3791.9,-148.8 3791.9,-148.8"/>
<polygon fill="black" stroke="black" points="3791.9,-152.3 3801.9,-148.8 3791.9,-145.3 3791.9,-152.3"/>
</g>
<!-- DataService -->
<g id="node26" class="node">
<title>DataService</title>
<ellipse fill="#fdb462" stroke="black" cx="4529" cy="-66.8" rx="58.44" ry="18"/>
<text text-anchor="middle" x="4529" y="-62.6" font-family="Times,serif" font-size="14.00">DataService</text>
</g>
<!-- DataService&#45;&gt;ChartsModule -->
<g id="edge23" class="edge">
<title>DataService&#45;&gt;ChartsModule</title>
<path fill="none" stroke="black" d="M4509.59,-84.19C4509.59,-109.83 4509.59,-154.8 4509.59,-154.8 4509.59,-154.8 3908.23,-154.8 3908.23,-154.8"/>
<polygon fill="black" stroke="black" points="3908.23,-151.3 3898.23,-154.8 3908.23,-158.3 3908.23,-151.3"/>
</g>
<!-- TablesModule -->
<g id="node53" class="node">
<title>TablesModule</title>
<polygon fill="#8dd3c7" stroke="black" points="4823.37,-160.8 4820.37,-164.8 4799.37,-164.8 4796.37,-160.8 4726.63,-160.8 4726.63,-124.8 4823.37,-124.8 4823.37,-160.8"/>
<text text-anchor="middle" x="4775" y="-138.6" font-family="Times,serif" font-size="14.00">TablesModule</text>
</g>
<!-- DataService&#45;&gt;TablesModule -->
<g id="edge52" class="edge">
<title>DataService&#45;&gt;TablesModule</title>
<path fill="none" stroke="black" d="M4548.41,-83.95C4548.41,-102.91 4548.41,-130.8 4548.41,-130.8 4548.41,-130.8 4716.39,-130.8 4716.39,-130.8"/>
<polygon fill="black" stroke="black" points="4716.39,-134.3 4726.39,-130.8 4716.39,-127.3 4716.39,-134.3"/>
</g>
<!-- StatComponent -->
<g id="node27" class="node">
<title>StatComponent</title>
<polygon fill="#ffffb3" stroke="black" points="5382.61,-84.8 5279.39,-84.8 5279.39,-48.8 5382.61,-48.8 5382.61,-84.8"/>
<text text-anchor="middle" x="5331" y="-62.6" font-family="Times,serif" font-size="14.00">StatComponent</text>
</g>
<!-- DashboardModule -->
<g id="node28" class="node">
<title>DashboardModule</title>
<polygon fill="#8dd3c7" stroke="black" points="5311.19,-160.8 5308.19,-164.8 5287.19,-164.8 5284.19,-160.8 5190.81,-160.8 5190.81,-124.8 5311.19,-124.8 5311.19,-160.8"/>
<text text-anchor="middle" x="5251" y="-138.6" font-family="Times,serif" font-size="14.00">DashboardModule</text>
</g>
<!-- StatComponent&#45;&gt;DashboardModule -->
<g id="edge25" class="edge">
<title>StatComponent&#45;&gt;DashboardModule</title>
<path fill="none" stroke="black" d="M5295.27,-84.81C5295.27,-84.81 5295.27,-114.65 5295.27,-114.65"/>
<polygon fill="black" stroke="black" points="5291.77,-114.65 5295.27,-124.65 5298.77,-114.65 5291.77,-114.65"/>
</g>
<!-- DashboardRoutingModule -->
<g id="node29" class="node">
<title>DashboardRoutingModule</title>
<polygon fill="#8dd3c7" stroke="black" points="5254.81,-84.8 5251.81,-88.8 5230.81,-88.8 5227.81,-84.8 5089.19,-84.8 5089.19,-48.8 5254.81,-48.8 5254.81,-84.8"/>
<text text-anchor="middle" x="5172" y="-62.6" font-family="Times,serif" font-size="14.00">DashboardRoutingModule</text>
</g>
<!-- DashboardRoutingModule&#45;&gt;DashboardModule -->
<g id="edge26" class="edge">
<title>DashboardRoutingModule&#45;&gt;DashboardModule</title>
<path fill="none" stroke="black" d="M5222.78,-84.81C5222.78,-84.81 5222.78,-114.65 5222.78,-114.65"/>
<polygon fill="black" stroke="black" points="5219.28,-114.65 5222.78,-124.65 5226.28,-114.65 5219.28,-114.65"/>
</g>
<!-- AutoCompleteComponent -->
<g id="node30" class="node">
<title>AutoCompleteComponent</title>
<polygon fill="#ffffb3" stroke="black" points="1528.77,-84.8 1365.23,-84.8 1365.23,-48.8 1528.77,-48.8 1528.77,-84.8"/>
<text text-anchor="middle" x="1447" y="-62.6" font-family="Times,serif" font-size="14.00">AutoCompleteComponent</text>
</g>
<!-- AutoCompleteComponent&#45;&gt;FormsModule -->
<g id="edge27" class="edge">
<title>AutoCompleteComponent&#45;&gt;FormsModule</title>
<path fill="none" stroke="black" d="M1501.25,-84.97C1501.25,-87.25 1501.25,-88.8 1501.25,-88.8 1501.25,-88.8 1767.7,-88.8 1767.7,-88.8 1767.7,-88.8 1767.7,-114.52 1767.7,-114.52"/>
<polygon fill="black" stroke="black" points="1764.2,-114.52 1767.7,-124.52 1771.2,-114.52 1764.2,-114.52"/>
</g>
<!-- CheckboxComponent -->
<g id="node31" class="node">
<title>CheckboxComponent</title>
<polygon fill="#ffffb3" stroke="black" points="1347.1,-84.8 1208.9,-84.8 1208.9,-48.8 1347.1,-48.8 1347.1,-84.8"/>
<text text-anchor="middle" x="1278" y="-62.6" font-family="Times,serif" font-size="14.00">CheckboxComponent</text>
</g>
<!-- CheckboxComponent&#45;&gt;FormsModule -->
<g id="edge28" class="edge">
<title>CheckboxComponent&#45;&gt;FormsModule</title>
<path fill="none" stroke="black" d="M1323.97,-84.86C1323.97,-89.29 1323.97,-92.8 1323.97,-92.8 1323.97,-92.8 1757.11,-92.8 1757.11,-92.8 1757.11,-92.8 1757.11,-114.75 1757.11,-114.75"/>
<polygon fill="black" stroke="black" points="1753.61,-114.75 1757.11,-124.75 1760.61,-114.75 1753.61,-114.75"/>
</g>
<!-- DatepickerComponent -->
<g id="node32" class="node">
<title>DatepickerComponent</title>
<polygon fill="#ffffb3" stroke="black" points="2437.24,-84.8 2294.76,-84.8 2294.76,-48.8 2437.24,-48.8 2437.24,-84.8"/>
<text text-anchor="middle" x="2366" y="-62.6" font-family="Times,serif" font-size="14.00">DatepickerComponent</text>
</g>
<!-- DatepickerComponent&#45;&gt;FormsModule -->
<g id="edge29" class="edge">
<title>DatepickerComponent&#45;&gt;FormsModule</title>
<path fill="none" stroke="black" d="M2307.9,-85.08C2307.9,-100.75 2307.9,-120.8 2307.9,-120.8 2307.9,-120.8 1810.07,-120.8 1810.07,-120.8 1810.07,-120.8 1810.07,-121.18 1810.07,-121.18"/>
<polygon fill="black" stroke="black" points="1806.57,-114.63 1810.07,-124.63 1813.57,-114.63 1806.57,-114.63"/>
</g>
<!-- InputsComponent -->
<g id="node33" class="node">
<title>InputsComponent</title>
<polygon fill="#ffffb3" stroke="black" points="2276.33,-84.8 2159.67,-84.8 2159.67,-48.8 2276.33,-48.8 2276.33,-84.8"/>
<text text-anchor="middle" x="2218" y="-62.6" font-family="Times,serif" font-size="14.00">InputsComponent</text>
</g>
<!-- InputsComponent&#45;&gt;FormsModule -->
<g id="edge30" class="edge">
<title>InputsComponent&#45;&gt;FormsModule</title>
<path fill="none" stroke="black" d="M2168.33,-84.85C2168.33,-99.17 2168.33,-116.8 2168.33,-116.8 2168.33,-116.8 1799.48,-116.8 1799.48,-116.8 1799.48,-116.8 1799.48,-117.59 1799.48,-117.59"/>
<polygon fill="black" stroke="black" points="1795.98,-114.74 1799.48,-124.74 1802.98,-114.74 1795.98,-114.74"/>
</g>
<!-- OtherComponent -->
<g id="node34" class="node">
<title>OtherComponent</title>
<polygon fill="#ffffb3" stroke="black" points="2141.7,-84.8 2028.3,-84.8 2028.3,-48.8 2141.7,-48.8 2141.7,-84.8"/>
<text text-anchor="middle" x="2085" y="-62.6" font-family="Times,serif" font-size="14.00">OtherComponent</text>
</g>
<!-- OtherComponent&#45;&gt;FormsModule -->
<g id="edge31" class="edge">
<title>OtherComponent&#45;&gt;FormsModule</title>
<path fill="none" stroke="black" d="M2082.89,-84.98C2082.89,-97.84 2082.89,-112.8 2082.89,-112.8 2082.89,-112.8 1788.89,-112.8 1788.89,-112.8 1788.89,-112.8 1788.89,-114.66 1788.89,-114.66"/>
<polygon fill="black" stroke="black" points="1785.39,-114.66 1788.89,-124.66 1792.39,-114.66 1785.39,-114.66"/>
</g>
<!-- SelectedValueComponent -->
<g id="node35" class="node">
<title>SelectedValueComponent</title>
<polygon fill="#ffffb3" stroke="black" points="2010.18,-84.8 1847.82,-84.8 1847.82,-48.8 2010.18,-48.8 2010.18,-84.8"/>
<text text-anchor="middle" x="1929" y="-62.6" font-family="Times,serif" font-size="14.00">SelectedValueComponent</text>
</g>
<!-- SelectedValueComponent&#45;&gt;FormsModule -->
<g id="edge32" class="edge">
<title>SelectedValueComponent&#45;&gt;FormsModule</title>
<path fill="none" stroke="black" d="M1854.43,-84.81C1854.43,-107.29 1854.43,-142.8 1854.43,-142.8 1854.43,-142.8 1830.84,-142.8 1830.84,-142.8"/>
<polygon fill="black" stroke="black" points="1830.84,-139.3 1820.84,-142.8 1830.84,-146.3 1830.84,-139.3"/>
</g>
<!-- SliderComponent -->
<g id="node36" class="node">
<title>SliderComponent</title>
<polygon fill="#ffffb3" stroke="black" points="1830.27,-84.8 1715.73,-84.8 1715.73,-48.8 1830.27,-48.8 1830.27,-84.8"/>
<text text-anchor="middle" x="1773" y="-62.6" font-family="Times,serif" font-size="14.00">SliderComponent</text>
</g>
<!-- SliderComponent&#45;&gt;FormsModule -->
<g id="edge33" class="edge">
<title>SliderComponent&#45;&gt;FormsModule</title>
<path fill="none" stroke="black" d="M1778.3,-84.81C1778.3,-84.81 1778.3,-114.65 1778.3,-114.65"/>
<polygon fill="black" stroke="black" points="1774.8,-114.65 1778.3,-124.65 1781.8,-114.65 1774.8,-114.65"/>
</g>
<!-- StatesGroupComponent -->
<g id="node37" class="node">
<title>StatesGroupComponent</title>
<polygon fill="#ffffb3" stroke="black" points="1697.04,-84.8 1546.96,-84.8 1546.96,-48.8 1697.04,-48.8 1697.04,-84.8"/>
<text text-anchor="middle" x="1622" y="-62.6" font-family="Times,serif" font-size="14.00">StatesGroupComponent</text>
</g>
<!-- StatesGroupComponent&#45;&gt;FormsModule -->
<g id="edge34" class="edge">
<title>StatesGroupComponent&#45;&gt;FormsModule</title>
<path fill="none" stroke="black" d="M1697.12,-66.8C1705.73,-66.8 1711.5,-66.8 1711.5,-66.8 1711.5,-66.8 1711.5,-142.8 1711.5,-142.8 1711.5,-142.8 1715.15,-142.8 1715.15,-142.8"/>
<polygon fill="black" stroke="black" points="1715.15,-146.3 1725.15,-142.8 1715.15,-139.3 1715.15,-146.3"/>
</g>
<!-- FormsRoutingModule -->
<g id="node38" class="node">
<title>FormsRoutingModule</title>
<polygon fill="#8dd3c7" stroke="black" points="1185.45,-84.8 1182.45,-88.8 1161.45,-88.8 1158.45,-84.8 1044.55,-84.8 1044.55,-48.8 1185.45,-48.8 1185.45,-84.8"/>
<text text-anchor="middle" x="1115" y="-62.6" font-family="Times,serif" font-size="14.00">FormsRoutingModule</text>
</g>
<!-- FormsRoutingModule&#45;&gt;FormsModule -->
<g id="edge35" class="edge">
<title>FormsRoutingModule&#45;&gt;FormsModule</title>
<path fill="none" stroke="black" d="M1115,-84.94C1115,-91.26 1115,-96.8 1115,-96.8 1115,-96.8 1746.52,-96.8 1746.52,-96.8 1746.52,-96.8 1746.52,-114.62 1746.52,-114.62"/>
<polygon fill="black" stroke="black" points="1743.02,-114.62 1746.52,-124.62 1750.02,-114.62 1743.02,-114.62"/>
</g>
<!-- LoginComponent -->
<g id="node39" class="node">
<title>LoginComponent</title>
<polygon fill="#ffffb3" stroke="black" points="2137.28,-160.8 2022.72,-160.8 2022.72,-124.8 2137.28,-124.8 2137.28,-160.8"/>
<text text-anchor="middle" x="2080" y="-138.6" font-family="Times,serif" font-size="14.00">LoginComponent</text>
</g>
<!-- LoginComponent&#45;&gt;LoginModule -->
<g id="edge37" class="edge">
<title>LoginComponent&#45;&gt;LoginModule</title>
<path fill="none" stroke="black" d="M2080,-160.91C2080,-180.14 2080,-207.8 2080,-207.8 2080,-207.8 1986.64,-207.8 1986.64,-207.8"/>
<polygon fill="black" stroke="black" points="1986.64,-204.3 1976.64,-207.8 1986.64,-211.3 1986.64,-204.3"/>
</g>
<!-- LoginRoutingModule -->
<g id="node41" class="node">
<title>LoginRoutingModule</title>
<polygon fill="#8dd3c7" stroke="black" points="1999.11,-160.8 1996.11,-164.8 1975.11,-164.8 1972.11,-160.8 1860.89,-160.8 1860.89,-124.8 1999.11,-124.8 1999.11,-160.8"/>
<text text-anchor="middle" x="1930" y="-138.6" font-family="Times,serif" font-size="14.00">LoginRoutingModule</text>
</g>
<!-- LoginRoutingModule&#45;&gt;LoginModule -->
<g id="edge39" class="edge">
<title>LoginRoutingModule&#45;&gt;LoginModule</title>
<path fill="none" stroke="black" d="M1930,-160.91C1930,-160.91 1930,-179.79 1930,-179.79"/>
<polygon fill="black" stroke="black" points="1926.5,-179.79 1930,-189.79 1933.5,-179.79 1926.5,-179.79"/>
</g>
<!-- PageNotFoundComponent -->
<g id="node42" class="node">
<title>PageNotFoundComponent</title>
<polygon fill="#ffffb3" stroke="black" points="1204.82,-160.8 1039.18,-160.8 1039.18,-124.8 1204.82,-124.8 1204.82,-160.8"/>
<text text-anchor="middle" x="1122" y="-138.6" font-family="Times,serif" font-size="14.00">PageNotFoundComponent</text>
</g>
<!-- PageNotFoundComponent&#45;&gt;SharedModule -->
<g id="edge40" class="edge">
<title>PageNotFoundComponent&#45;&gt;SharedModule</title>
<path fill="none" stroke="black" d="M1039.28,-142.8C1033.64,-142.8 1030.14,-142.8 1030.14,-142.8 1030.14,-142.8 1030.14,-54.8 1030.14,-54.8 1030.14,-54.8 522.34,-54.8 522.34,-54.8"/>
<polygon fill="black" stroke="black" points="522.34,-51.3 512.34,-54.8 522.34,-58.3 522.34,-51.3"/>
</g>
<!-- RouterTab -->
<g id="node43" class="node">
<title>RouterTab</title>
<polygon fill="#ffffb3" stroke="black" points="1020.87,-160.8 945.13,-160.8 945.13,-124.8 1020.87,-124.8 1020.87,-160.8"/>
<text text-anchor="middle" x="983" y="-138.6" font-family="Times,serif" font-size="14.00">RouterTab</text>
</g>
<!-- RouterTab&#45;&gt;SharedModule -->
<g id="edge41" class="edge">
<title>RouterTab&#45;&gt;SharedModule</title>
<path fill="none" stroke="black" d="M983,-124.6C983,-100.44 983,-60.8 983,-60.8 983,-60.8 522.39,-60.8 522.39,-60.8"/>
<polygon fill="black" stroke="black" points="522.39,-57.3 512.39,-60.8 522.39,-64.3 522.39,-57.3"/>
</g>
<!-- RouterTabs -->
<g id="node44" class="node">
<title>RouterTabs</title>
<polygon fill="#ffffb3" stroke="black" points="1303.81,-160.8 1222.19,-160.8 1222.19,-124.8 1303.81,-124.8 1303.81,-160.8"/>
<text text-anchor="middle" x="1263" y="-138.6" font-family="Times,serif" font-size="14.00">RouterTabs</text>
</g>
<!-- RouterTabs&#45;&gt;SharedModule -->
<g id="edge42" class="edge">
<title>RouterTabs&#45;&gt;SharedModule</title>
<path fill="none" stroke="black" d="M1263,-124.61C1263,-116.52 1263,-108.8 1263,-108.8 1263,-108.8 463,-108.8 463,-108.8 463,-108.8 463,-94.86 463,-94.86"/>
<polygon fill="black" stroke="black" points="466.5,-94.86 463,-84.86 459.5,-94.86 466.5,-94.86"/>
</g>
<!-- SignupComponent -->
<g id="node48" class="node">
<title>SignupComponent</title>
<polygon fill="#ffffb3" stroke="black" points="2466.51,-160.8 2345.49,-160.8 2345.49,-124.8 2466.51,-124.8 2466.51,-160.8"/>
<text text-anchor="middle" x="2406" y="-138.6" font-family="Times,serif" font-size="14.00">SignupComponent</text>
</g>
<!-- SignupComponent&#45;&gt;SignupModule -->
<g id="edge46" class="edge">
<title>SignupComponent&#45;&gt;SignupModule</title>
<path fill="none" stroke="black" d="M2406,-160.91C2406,-180.14 2406,-207.8 2406,-207.8 2406,-207.8 2308.68,-207.8 2308.68,-207.8"/>
<polygon fill="black" stroke="black" points="2308.68,-204.3 2298.68,-207.8 2308.68,-211.3 2308.68,-204.3"/>
</g>
<!-- SignupRoutingModule -->
<g id="node50" class="node">
<title>SignupRoutingModule</title>
<polygon fill="#8dd3c7" stroke="black" points="2321.34,-160.8 2318.34,-164.8 2297.34,-164.8 2294.34,-160.8 2176.66,-160.8 2176.66,-124.8 2321.34,-124.8 2321.34,-160.8"/>
<text text-anchor="middle" x="2249" y="-138.6" font-family="Times,serif" font-size="14.00">SignupRoutingModule</text>
</g>
<!-- SignupRoutingModule&#45;&gt;SignupModule -->
<g id="edge48" class="edge">
<title>SignupRoutingModule&#45;&gt;SignupModule</title>
<path fill="none" stroke="black" d="M2265.54,-160.91C2265.54,-160.91 2265.54,-179.79 2265.54,-179.79"/>
<polygon fill="black" stroke="black" points="2262.04,-179.79 2265.54,-189.79 2269.04,-179.79 2262.04,-179.79"/>
</g>
<!-- SearchComponent -->
<g id="node51" class="node">
<title>SearchComponent</title>
<polygon fill="#ffffb3" stroke="black" points="5048.92,-84.8 4929.08,-84.8 4929.08,-48.8 5048.92,-48.8 5048.92,-84.8"/>
<text text-anchor="middle" x="4989" y="-62.6" font-family="Times,serif" font-size="14.00">SearchComponent</text>
</g>
<!-- SearchComponent&#45;&gt;TablesModule -->
<g id="edge49" class="edge">
<title>SearchComponent&#45;&gt;TablesModule</title>
<path fill="none" stroke="black" d="M4989,-84.81C4989,-107.29 4989,-142.8 4989,-142.8 4989,-142.8 4833.56,-142.8 4833.56,-142.8"/>
<polygon fill="black" stroke="black" points="4833.56,-139.3 4823.56,-142.8 4833.56,-146.3 4833.56,-139.3"/>
</g>
<!-- TablesComponent -->
<g id="node52" class="node">
<title>TablesComponent</title>
<polygon fill="#ffffb3" stroke="black" points="4911.15,-84.8 4792.85,-84.8 4792.85,-48.8 4911.15,-48.8 4911.15,-84.8"/>
<text text-anchor="middle" x="4852" y="-62.6" font-family="Times,serif" font-size="14.00">TablesComponent</text>
</g>
<!-- TablesComponent&#45;&gt;TablesModule -->
<g id="edge50" class="edge">
<title>TablesComponent&#45;&gt;TablesModule</title>
<path fill="none" stroke="black" d="M4808.05,-84.81C4808.05,-84.81 4808.05,-114.65 4808.05,-114.65"/>
<polygon fill="black" stroke="black" points="4804.55,-114.65 4808.05,-124.65 4811.55,-114.65 4804.55,-114.65"/>
</g>
<!-- TablesRoutingModule -->
<g id="node54" class="node">
<title>TablesRoutingModule</title>
<polygon fill="#8dd3c7" stroke="black" points="4768.98,-84.8 4765.98,-88.8 4744.98,-88.8 4741.98,-84.8 4627.02,-84.8 4627.02,-48.8 4768.98,-48.8 4768.98,-84.8"/>
<text text-anchor="middle" x="4698" y="-62.6" font-family="Times,serif" font-size="14.00">TablesRoutingModule</text>
</g>
<!-- TablesRoutingModule&#45;&gt;TablesModule -->
<g id="edge51" class="edge">
<title>TablesRoutingModule&#45;&gt;TablesModule</title>
<path fill="none" stroke="black" d="M4747.78,-84.81C4747.78,-84.81 4747.78,-114.65 4747.78,-114.65"/>
<polygon fill="black" stroke="black" points="4744.28,-114.65 4747.78,-124.65 4751.28,-114.65 4744.28,-114.65"/>
</g>
</g>
</svg>
